<svg width="7025" height="287" viewBox="0 0 7025 287" fill="none" xmlns="http://www.w3.org/2000/svg">
<g clip-path="url(#clip0_690_40)">
<path d="M7024.62 285.44L7024.71 284.59L6658.07 243.81H7024.62V242.11H6642.79L6066.49 178.01H7024.62V176.31H6051.22L5883.22 157.62H7024.62V155.93H5868L5702.73 137.54H7024.62V135.84H5687.39L5526.21 117.91H7024.62V116.21H5510.93L5356.63 99.05H7024.63V97.35H5341.34L5260.23 88.35H7024.62V86.65H5244.94L5189.19 80.45H7024.62V78.75H5173.91L5095.34 70.01H7024.62V68.24H5080.05L5011.56 60.62H7024.62V58.92H4996.27L4937.27 52.36H7024.62V50.66H4922L4859.69 43.73H7024.62V42.03H4844.42L4778.29 34.67H7024.62V32.97H4763L4696.87 25.61H7024.62V23.91H4681.62L4632 18.44H7024.6V16.74H4616.74L4582.37 12.92H7024.62V11.22H4567.08L4544 8.61H7024.62V6.91H4528.72L4515.42 5.44H7024.62V3.73H4500.14L4483.43 1.87H7024.62V0.17H3873.86H3844.23C3844.13 0.176832 3844.04 0.159648 3843.95 0.12V0.2H3796.95C3796.82 0.2 3796.65 0.15 3796.51 0.15V0.2H3749.76C3749.52 0.191251 3749.28 0.157744 3749.04 0.1V0.2H3702.43C3702.16 0.142078 3701.88 0.108613 3701.6 0.1V0.2H3655L3654.17 0.05V0.2H3607.64C3607.34 0.125733 3607.03 0.0755752 3606.72 0.05V0.2H3559.84C3559.64 0.15 3559.48 0.05 3559.28 0V0.2H3464.28V0C3464.08 0 3463.92 0.15 3463.72 0.2H3416.83V0.05L3415.92 0.2H3369.39V0.05L3368.56 0.2H3322V0.1C3321.73 0.157922 3321.45 0.191387 3321.17 0.2H3274.56V0.1C3274.32 0.110729 3274.08 0.144209 3273.84 0.2H3227.09V0.15C3226.95 0.15 3226.78 0.2 3226.65 0.2H3179.65V0.15C3179.55 0.141345 3179.46 0.158611 3179.37 0.2H3150.88H0.1V1.9H2541.28L2524.58 3.76H0.1V5.44H2509.29L2496 6.91H0.1V8.61H2480.71L2457.63 11.18H0.1V12.88H2442.35L2408 16.7H0.1V18.44H2392.69L2343.13 23.95H0.1V25.65H2327.84L2261.71 33.01H0.1V34.71H2246.43L2180.3 42.07H0.1V43.77H2165L2102.7 50.7H0.1V52.4H2087.42L2028.42 58.96H0.1V60.66H2013.16L1944.66 68.28H0.1V69.98H1929.38L1850.81 78.72H0.1V80.42H1835.53L1779.77 86.62H0.1V88.32H1764.49L1683.37 97.32H0.1V99.02H1668.1L1513.8 116.18H0.1V117.88H1498.5L1337.32 135.81H0.1V137.51H1322L1156.72 155.9H0.1V157.59H1141.49L973.49 176.28H0.1V177.98H958.22L381.92 242.08H0.1V243.78H366.64L0 284.54L0.1 285.39V286.24H7024.62V285.44ZM7009.29 284.59H6857.34L6509.24 243.81H6642.7L7009.29 284.59ZM4712 243.76H4860.14L5010.35 284.54H4849.75L4712 243.76ZM3913.08 2.95C3910.67 2.55 3908.23 2.2 3905.8 1.87H3969.12L3976 3.73H3917.79L3913.08 2.95ZM4495 178.03L4499 179.1C4501.83 179.96 4504.66 180.73 4507.49 181.54C4510.32 182.35 4513.15 183.17 4515.97 184.04C4518.79 184.91 4521.66 185.77 4524.51 186.68L4533.08 189.43C4535.94 190.43 4538.82 191.32 4541.68 192.34C4544.54 193.36 4547.44 194.34 4550.33 195.34C4553.22 196.34 4556.12 197.43 4559.01 198.5C4561.9 199.57 4564.83 200.69 4567.74 201.81C4570.65 202.93 4573.59 204.1 4576.53 205.27C4578.52 206.038 4580.56 206.669 4582.63 207.16C4583.24 207.31 4583.88 207.51 4584.52 207.67H4455.62L4448.36 205.22C4445.36 204.182 4442.43 202.939 4439.6 201.5C4436.66 200.03 4433.75 198.6 4430.83 197.28C4427.91 195.96 4425.01 194.58 4422.13 193.28C4419.25 191.98 4416.36 190.78 4413.48 189.61C4410.6 188.44 4407.74 187.27 4404.88 186.2C4402.02 185.13 4399.17 184.06 4396.31 183.04C4393.45 182.02 4390.63 181.04 4387.8 180.04C4384.97 179.04 4382.14 178.2 4379.32 177.29C4378.9 177.13 4378.46 177.03 4378.04 176.88L4457.97 177.57V177.83H4487.29L4495 178.03ZM4590.38 209.44L4700.38 242.03H4556.88L4460.67 209.44H4590.38ZM3775 195.14C3773.01 190.276 3770.61 185.592 3767.82 181.14C3765.82 177.941 3763.44 175.002 3760.72 172.39C3760.39 172.08 3760.03 171.83 3759.72 171.52L3880.39 172.59C3881.3 173.1 3882.19 173.59 3883.08 174.12C3885.79 175.795 3888.37 177.667 3890.81 179.72C3893.62 182.11 3896.23 184.714 3898.63 187.51C3901.49 190.852 3904.13 194.372 3906.54 198.05C3909.09 201.92 3911.54 205.54 3914.13 207.78H3781.59C3779.68 205.27 3777.57 201.2 3775 195.14ZM3671.3 77.14L3665.23 69.96H3739.51L3750.51 78.66H3672.68C3672.21 78.17 3671.76 77.66 3671.29 77.15L3671.3 77.14ZM4484.3 176.25L4372.14 175.25C4371.7 175.09 4371.26 174.99 4370.81 174.84C4368.01 174.03 4365.21 173.26 4362.41 172.5C4359.61 171.74 4356.81 171.02 4354.04 170.26C4351.27 169.5 4348.46 168.83 4345.69 168.17L4337.37 166.17C4334.6 165.51 4331.83 164.9 4329.08 164.24L4328.61 164.14C4325.98 163.607 4323.38 162.939 4320.82 162.14L4307.4 157.61H4415.2L4432.2 162.61C4432.98 162.81 4433.73 163.02 4434.45 163.27C4436.45 163.88 4438.5 164.54 4440.55 164.95L4448.84 166.78C4451.61 167.39 4454.39 168.01 4457.16 168.67C4459.93 169.33 4462.7 169.94 4465.48 170.6L4473.82 172.6C4476.62 173.26 4479.4 173.97 4482.2 174.69C4484.2 175.18 4486.2 175.69 4488.2 176.23L4484.3 176.25ZM3713.2 126.79C3711.2 124.45 3709.2 120.79 3707.04 115.64L3803.04 116.04C3804.4 118.13 3805.73 120.37 3807.04 122.71C3808.25 125.014 3810.16 126.871 3812.5 128.01C3813.28 128.444 3814.03 128.921 3814.75 129.44L3822.85 135.85H3720.75L3713.2 126.79ZM3932.06 12.88L3951.2 13.03C3952.56 13.39 3953.89 13.75 3955.25 14.15C3958.02 14.94 3960.85 15.82 3963.65 16.7H3950.93L3912.13 16.4C3910.61 15.83 3909.13 15.17 3907.61 14.66C3905.61 13.95 3903.61 13.29 3901.61 12.66L3925.2 12.85V12.91L3932.06 12.88ZM4289 117.94C4290.06 118.4 4291.11 118.85 4292.16 119.36L4300.48 123.36C4302.43 124.268 4304.48 124.965 4306.58 125.44L4308.8 126.05L4341.71 135.78H4243L4205.67 123.15C4203.15 122.18 4200.73 120.971 4198.44 119.54L4197.44 118.98L4194.94 117.6L4258.47 117.84H4269.42L4289 117.94ZM3912.3 78.06L3895.16 69.97H3967.4L3989.4 78.67H3913.46C3913.05 78.44 3912.66 78.22 3912.3 78.06ZM3973.3 25.61L3989.05 25.71C3991.38 26.63 3993.71 27.55 3995.98 28.51C3999.26 29.84 4002.61 31.32 4005.98 32.79L4006.36 32.97H3978L3948.2 32.86L3947.95 32.71C3944.62 30.93 3941.27 29.2 3938.02 27.62L3933.23 25.33L3949.35 25.43V25.58L3973.3 25.61ZM4238.24 99.2L4241.96 100.27C4244.78 101.13 4247.58 102 4250.41 102.97C4253.24 103.94 4256.01 104.85 4258.81 105.82C4261.61 106.79 4264.39 107.82 4267.19 108.87C4269.99 109.92 4272.76 111.01 4275.53 112.13C4278.3 113.25 4281.08 114.42 4283.85 115.65L4284.96 116.16H4260.76L4191.94 115.9L4189.22 114.37C4186.56 112.95 4183.76 111.52 4180.9 110.15C4178.04 108.78 4175.33 107.5 4172.55 106.28C4169.77 105.06 4166.95 103.83 4164.18 102.71C4161.41 101.59 4158.61 100.52 4155.75 99.45C4154.7 99.04 4153.67 98.74 4152.62 98.38L4214.44 98.97H4217.51L4238.24 99.2ZM3978.84 34.67L4010.35 34.78C4012.15 35.59 4013.98 36.41 4015.78 37.27C4019.03 38.84 4022.27 40.41 4025.5 42.03H4022.62V42.93H3968.62L3967.46 42.52C3964.09 41.4165 3960.85 39.9654 3957.78 38.19C3955.67 36.97 3953.51 35.8 3951.35 34.57L3977.96 34.67H3978.82H3978.84ZM4675.36 86.58L4638.46 80.38H4730L4768.88 86.58H4675.36ZM4779.5 88.28L4836.06 97.28H4739.17L4685.48 88.28H4779.5ZM4214.85 97.28L4147.57 96.63C4147.49 96.63 4147.37 96.63 4147.29 96.53C4144.46 95.61 4141.64 94.7 4138.81 93.88C4135.98 93.06 4133.12 92.25 4130.29 91.49C4127.46 90.73 4124.58 90.01 4121.73 89.3C4120.01 88.89 4118.29 88.48 4116.54 88.13L4193.74 88.53C4195.59 88.89 4197.42 89.25 4199.28 89.65C4202.14 90.11 4205.02 90.72 4207.88 91.39C4210.74 92.06 4213.59 92.66 4216.44 93.39C4219.29 94.12 4222.13 94.77 4224.98 95.53C4227.14 96.09 4229.33 96.69 4231.48 97.3L4214.85 97.28ZM4154.27 78.66L4124.76 69.92H4219.84L4252 78.68L4154.27 78.66ZM4257.77 60.6H4315.56L4350.56 68.22H4289.32L4257.77 60.6ZM4282.06 68.22H4220.06L4192 60.62H4250.54L4282.06 68.22ZM4323.55 60.6H4380.55L4419 68.24H4358.51L4323.55 60.6ZM4389.32 60.6H4445.6L4487.48 68.22H4427.75L4389.32 60.6ZM4380.75 58.9L4347.66 52.34H4400.19L4436.25 58.9H4380.75ZM4372 58.9H4315.74L4285.63 52.34H4338.91L4372 58.9ZM4307.76 58.9H4250.76L4223.62 52.34H4277.62L4307.76 58.9ZM4243.5 58.9H4185.74L4161.57 52.34H4216.36L4243.5 58.9ZM4179.25 58.9H4087.55L4065.39 52.34H4155.08L4179.25 58.9ZM4185.51 60.6L4213.58 68.22H4119L4093.28 60.6H4185.51ZM4226.33 69.92H4289.09L4325.25 78.66H4258.52L4226.33 69.92ZM4296.33 69.92H4358.33L4398.45 78.66H4332.45L4296.33 69.92ZM4366.33 69.92H4427.59L4471.67 78.66H4406.45L4366.33 69.92ZM4436.33 69.92H4496.83L4544.88 78.66H4480.41L4436.33 69.92ZM4506.33 69.92H4566.08L4618.08 78.66H4554.38L4506.33 69.92ZM4497 68.24L4455.12 60.62H4510.64L4556 68.24H4497ZM4445.77 58.92L4409.71 52.36H4461.48L4500.48 58.92H4445.77ZM4400.36 50.66L4362.26 43.73H4410.12L4451.36 50.66H4400.36ZM4390.86 50.66H4339.1L4304.1 43.73H4352.72L4390.86 50.66ZM4330.36 50.66H4277.84L4246 43.73H4295.37L4330.36 50.66ZM4269.85 50.66H4216.58L4187.91 43.73H4238L4269.85 50.66ZM4209.35 50.66H4155.35L4129.82 43.73H4180.7L4209.35 50.66ZM4148.84 50.66H4059.67L4036.27 43.73H4123.27L4148.84 50.66ZM4033.63 44.66L4035.38 45.12L4053.76 50.56H3991.15L3973.71 44.66H4033.63ZM4022.63 52.3V52.41H4059.9L4082.11 58.97H4016L3996.23 52.3H4022.63ZM4087.85 60.7L4113.53 68.29H4043.46L4021 60.65L4087.85 60.7ZM4086.68 69.97H4119.39L4148.66 78.65H4074.18L4048.54 69.95L4086.68 69.97ZM4122.95 80.35V80.43H4154.66L4155.56 80.71L4158.31 81.63C4160.3 82.3313 4162.34 82.8927 4164.41 83.31C4167.35 83.77 4170.29 84.31 4173.2 84.78L4181.93 86.31L4183.68 86.63H4158.3L4108.51 86.36C4107.15 86.06 4105.82 85.8 4104.46 85.5L4095.76 83.82C4092.84 83.31 4089.93 82.75 4087.02 82.24C4084.43 81.7825 4081.87 81.151 4079.37 80.35H4122.95ZM4192.26 86.63L4190.67 86.31C4187.78 85.75 4184.87 85.24 4181.96 84.68L4173.23 83.16C4170.32 82.65 4167.38 82.16 4164.44 81.68C4162.83 81.395 4161.24 80.9769 4159.7 80.43H4258.31L4281.15 86.63H4192.26ZM4264.79 80.43H4332.29L4357.95 86.63H4287.64L4264.79 80.43ZM4339.53 80.43H4406.27L4434.74 86.63H4365.18L4339.53 80.43ZM4414.26 80.43H4480.26L4511.54 86.63H4442.74L4414.26 80.43ZM4489 80.43H4554.23L4588.33 86.63H4520.33L4489 80.43ZM4563.73 80.43H4628.21L4665.12 86.63H4597.83L4563.73 80.43ZM4628.35 78.73L4576.35 69.99H4664.53L4719.32 78.73H4628.35ZM4566.22 68.24L4520.88 60.62H4606.08L4653.85 68.24H4566.22ZM4510.76 58.92L4471.76 52.36H4554.33L4595.46 58.92H4510.76ZM4461.6 50.66L4420.36 43.73H4500.18L4543.63 50.66H4461.6ZM4410.24 42.03L4366.47 34.67H4443.41L4489.52 42.03H4410.24ZM4356.35 32.97L4312.58 25.61H4386.63L4432.75 32.97H4356.35ZM4346.09 32.97H4303.09L4262.65 25.61H4302.3L4346.09 32.97ZM4356.21 34.67L4400 42.03H4352.91L4312.48 34.67H4356.21ZM4343.39 42.03H4295.55L4258.45 34.67H4303L4343.39 42.03ZM4286.8 42.03H4238.2L4204.43 34.67H4249.7L4286.8 42.03ZM4230.21 42.03H4180.86L4150.43 34.67H4196.43L4230.21 42.03ZM4173.62 42.03H4123.52L4096.42 34.67H4143.19L4173.62 42.03ZM4117.03 42.03H4029.69C4028.33 41.6567 4027.02 41.1544 4025.76 40.53C4022.52 38.9 4019.25 37.32 4015.95 35.75C4015.18 35.38 4014.4 35.03 4013.61 34.67H4089.93L4117.03 42.03ZM3968.53 44.61L3985.97 50.51H3922.64L3907.7 44.61H3968.53ZM3991 52.25L4010.77 58.92H3943.89L3927 52.25H3991ZM4015.82 60.65L4038.3 68.24H3967.49L3948.22 60.65H4015.82ZM4043.35 69.97L4069 78.67H3993.8L3971.8 69.97H4043.35ZM4074.04 80.36L4078.04 81.68C4080.93 82.6516 4083.89 83.4004 4086.89 83.92C4089.8 84.43 4092.74 84.92 4095.62 85.5L4099.62 86.26L4023.28 85.86C4020.76 85.29 4018.28 84.73 4015.69 84.23C4012.83 83.67 4009.95 83.11 4007.09 82.6L4006 82.44C4003.43 82.049 4000.91 81.4196 3998.46 80.56L3998.13 80.41L4074.04 80.36ZM4108.4 87.99C4109.95 88.3 4111.45 88.6 4112.97 88.99C4115.86 89.6 4118.71 90.26 4121.57 90.99C4124.43 91.72 4127.28 92.41 4130.11 93.18C4132.94 93.95 4135.79 94.76 4138.62 95.57C4139.7 95.88 4140.78 96.23 4141.86 96.57L4056.69 95.75C4054.36 94.89 4052 93.97 4049.56 93.16C4046.81 92.24 4043.99 91.32 4041.16 90.46C4038.33 89.6 4035.61 88.88 4032.7 88.12C4031.98 87.91 4031.29 87.76 4030.57 87.61L4108.4 87.99ZM4057.74 97.82C4060.51 98.89 4063.29 100.06 4066.03 101.29C4068.77 102.52 4071.6 103.83 4074.29 105.21C4076.98 106.59 4079.81 108.11 4082.53 109.64C4085.25 111.17 4087.99 112.85 4090.74 114.58C4091.18 114.88 4091.62 115.14 4092.07 115.44L3997.68 115.09C3997.18 114.68 3996.68 114.22 3996.21 113.81C3993.55 111.62 3990.81 109.48 3988.03 107.55C3985.25 105.62 3982.57 103.78 3979.82 102.15C3977.07 100.52 3974.31 98.94 3971.56 97.52C3970.92 97.21 3970.26 96.85 3969.62 96.52L4056.69 97.38C4057.03 97.5642 4057.39 97.7116 4057.76 97.82H4057.74ZM4091 113C4088.26 111.27 4085.48 109.59 4082.77 108.06C4080.06 106.53 4077.28 105 4074.5 103.63C4071.72 102.26 4069.01 100.93 4066.21 99.71C4064.47 98.94 4062.72 98.23 4060.95 97.52L4147.37 98.38C4150.03 99.25 4152.75 100.22 4155.44 101.18C4158.3 102.25 4161.13 103.32 4163.84 104.44C4166.55 105.56 4169.42 106.73 4172.22 108.01C4175.02 109.29 4177.79 110.55 4180.56 111.88C4183.33 113.21 4186 114.58 4188.56 115.95L4094.78 115.49C4093.58 114.63 4092.31 113.81 4091 113ZM4237.15 97.3L4233.55 96.24C4230.72 95.43 4227.89 94.66 4225.04 93.95C4222.19 93.24 4219.35 92.48 4216.5 91.81L4207.93 89.81C4205.53 89.25 4203.12 88.74 4200.7 88.26H4287.37L4320.61 97.26L4237.15 97.3ZM4293.86 88.3H4365L4402.33 97.3H4327.16L4293.86 88.3ZM4372.18 88.3H4442.51L4483.92 97.3H4409.5L4372.18 88.3ZM4450.49 88.3H4520.07L4565.58 97.3H4491.91L4450.49 88.3ZM4528.81 88.3H4597.63L4647.23 97.3H4574.32L4528.81 88.3ZM4607.13 88.3H4675.19L4728.89 97.3H4656.73L4607.13 88.3ZM4739 99L4841.14 116.16H4760.43L4666.08 99H4739ZM4749.26 99H4846.69L4954.3 116.16H4851.4L4749.26 99ZM4857.49 99H4929.12L5044.5 116.16H4965.09L4857.49 99ZM4846.83 97.3L4790.26 88.3H4857.03L4917.69 97.3H4846.83ZM4779.6 86.58L4740.72 80.38H4803.9L4845.6 86.58H4779.6ZM4730.06 78.68L4675.3 69.94H4733.75L4792.5 78.68H4730.06ZM4664.64 68.24L4616.88 60.62H4671.1L4722.32 68.24H4664.64ZM4606.22 58.92L4565.09 52.36H4615.57L4659.67 58.92H4606.22ZM4554.43 50.66L4511 43.73H4557.56L4604.15 50.66H4554.43ZM4500.32 42.03L4454.2 34.67H4496.66L4546.11 42.03H4500.32ZM4443.54 32.97L4397.42 25.61H4435.78L4485.23 32.97H4443.54ZM4386.77 23.91L4352.2 18.44H4387.28L4424.35 23.95L4386.77 23.91ZM4375.97 23.91H4302.46L4269.65 18.44H4341.41L4375.97 23.91ZM4292.2 23.91H4253.32L4223 18.44H4259.38L4292.2 23.91ZM4243.82 23.91H4204.19L4176.38 18.44H4213.51L4243.82 23.91ZM4253.17 25.61L4293.61 32.97H4249.87L4212.77 25.61H4253.17ZM4241.17 32.97H4196.67L4162.9 25.61H4204L4241.17 32.97ZM4188.68 32.97H4143.43L4113 25.61H4154.91L4188.68 32.97ZM4136.2 32.97H4090.2L4063.1 25.61H4105.76L4136.2 32.97ZM4083.71 32.97H4009.91L4006.09 31.21C4002.79 29.74 3999.43 28.31 3996.09 26.94C3995.02 26.49 3993.92 26.05 3992.83 25.61H4056.59L4083.71 32.97ZM3948 34.63C3951.16 36.31 3954.35 38.09 3957.46 39.87C3959.51 41.0498 3961.64 42.0888 3963.83 42.98H3903.33L3898.17 40.98C3895.94 39.9271 3893.86 38.582 3891.99 36.98C3890.88 36.11 3889.72 35.25 3888.58 34.53C3888.58 34.53 3888.5 34.48 3888.47 34.48L3948 34.63ZM3891.63 38.5C3893.56 40.1065 3895.7 41.4514 3897.98 42.5L3898.92 42.86H3838.12C3835.31 41.5573 3832.68 39.8969 3830.3 37.92C3828.77 36.59 3827.22 35.32 3825.67 34.1L3885.67 34.3C3886.56 34.91 3887.45 35.47 3888.31 36.03C3889.47 36.793 3890.59 37.6175 3891.67 38.5H3891.63ZM3903.25 44.61L3918.19 50.51H3854.14L3841.69 44.61H3903.25ZM3922.52 52.25L3939.46 58.92H3871.86L3857.75 52.25H3922.52ZM3943.79 60.65L3963.03 68.24H3891.52L3875.52 60.65H3943.79ZM3993.7 80.36L3998.24 82.14C4000.72 83.0392 4003.29 83.6858 4005.9 84.07L4006.98 84.28L4014.98 85.8L3938.07 85.35H3938C3935.37 84.68 3932.57 84.07 3929.49 83.41C3926.64 82.8033 3923.78 82.2433 3920.9 81.73C3919.52 81.4351 3918.17 80.9751 3916.9 80.36H3993.7ZM4023.2 87.43C4023.49 87.5611 4023.78 87.6649 4024.09 87.74C4026.91 88.4 4029.74 89.06 4032.57 89.74C4035.4 90.42 4038.31 91.26 4041 92.08C4043.69 92.9 4046.63 93.81 4049.37 94.73C4050.21 94.98 4051.01 95.29 4051.81 95.59L3965.81 94.73L3963.15 93.5C3960.46 92.33 3957.66 91.26 3954.8 90.25C3952.11 89.25 3949.28 88.36 3946.4 87.5C3945.82 87.34 3945.18 87.14 3944.6 86.99L4023.2 87.43ZM3965.72 96.55C3967.58 97.41 3969.43 98.28 3971.21 99.2C3973.95 100.62 3976.7 102.15 3979.42 103.78C3982.14 105.41 3984.91 107.24 3987.6 109.18C3990.29 111.12 3992.81 113.05 3995.36 115.18L3900.48 114.77C3899.67 113.85 3898.87 112.94 3898.04 112.12C3895.43 109.42 3892.74 106.83 3890.04 104.53C3887.49 102.317 3884.82 100.244 3882.04 98.32C3880.74 97.4 3879.41 96.59 3878.04 95.72L3965.72 96.55ZM3997.44 116.87C3999.6 118.7 4001.79 120.64 4003.9 122.62C4005.7 124.253 4007.81 125.502 4010.11 126.29C4010.78 126.59 4011.44 126.85 4012.11 127.15L4030.38 135.81H3929.69L3913.83 126.44C3913.11 126.027 3912.37 125.653 3911.61 125.32C3909.45 124.455 3907.54 123.055 3906.06 121.25C3904.76 119.62 3903.43 118.04 3902.06 116.51L3997.44 116.87ZM4012.33 125.47C4011.66 125.17 4010.97 124.86 4010.33 124.61C4008.12 123.824 4006.08 122.611 4004.33 121.04C4002.8 119.57 4001.22 118.19 3999.64 116.82L4094.64 117.17C4096.06 118.137 4097.47 119.107 4098.86 120.08L4099.05 120.23C4101.52 122.159 4104.21 123.8 4107.05 125.12L4134.05 135.81H4034.05L4012.33 125.47ZM4107.33 123.47C4104.52 122.175 4101.87 120.568 4099.42 118.68L4099.23 118.53C4098.59 118.07 4097.95 117.66 4097.32 117.2L4191.76 117.56C4193.59 118.56 4195.39 119.56 4197.19 120.56L4198.19 121.12C4200.52 122.574 4202.98 123.799 4205.54 124.78L4237.87 135.73H4138.61V135.78L4107.33 123.47ZM4288.76 116.14C4287.18 115.43 4285.62 114.71 4284.03 114.05C4281.26 112.83 4278.49 111.65 4275.69 110.53C4272.89 109.41 4270.12 108.29 4267.31 107.22C4264.5 106.15 4261.74 105.14 4258.91 104.22C4256.08 103.3 4253.31 102.28 4250.48 101.37C4248.02 100.56 4245.55 99.77 4243.07 99.03H4326.89L4390.12 116.19L4288.76 116.14ZM4333.38 98.98H4409.32L4480.32 116.14H4396.59L4333.38 98.98ZM4416.56 98.98H4491.75L4570.54 116.14H4487.54L4416.56 98.98ZM4499.74 98.98H4574.17L4660.75 116.14H4578.53L4499.74 98.98ZM4582.92 98.98H4656.6L4751 116.16H4669.5L4582.92 98.98ZM4760.3 117.84L4858.86 135.77H4768.5L4678.07 117.84H4760.3ZM4769.8 117.84H4851.28L4958 135.79H4868.39L4769.8 117.84ZM4861.54 117.84H4965L5077.4 135.77H4968.24L4861.54 117.84ZM4975.77 117.84H5056L5176.53 135.77H5088.22L4975.77 117.84ZM5067.51 117.84H5146.93L5275.59 135.77H5188.04L5067.51 117.84ZM5056.08 116.14L4940.7 99H5011.57L5134.74 116.16L5056.08 116.14ZM4929.27 97.3L4868.61 88.3H4934.61L4999.36 97.3H4929.27ZM4857.18 86.58L4815.49 80.38H4877.91L4922.42 86.58H4857.18ZM4804.06 78.68L4745.31 69.94H4803L4865.72 78.68H4804.06ZM4733.88 68.24L4682.66 60.62H4736.12L4790.79 68.24H4733.88ZM4671.23 58.92L4627.12 52.36H4676.84L4723.92 58.92H4671.23ZM4615.69 50.66L4569.1 43.73H4614.9L4664.64 50.66H4615.69ZM4557.69 42.03L4508.24 34.67H4549.93L4602.72 42.03H4557.69ZM4496.81 32.97L4447.35 25.61H4484.94L4537.73 32.97H4496.81ZM4435.92 23.91L4398.84 18.44H4433.16L4472.72 23.95L4435.92 23.91ZM4387.43 16.7L4361.72 12.88H4393.54L4421 16.7H4387.43ZM4375.87 16.7H4341.56L4317.56 12.88H4350.14L4375.87 16.7ZM4330.77 16.7H4259.55L4236.8 12.88H4306.8L4330.77 16.7ZM4249.29 16.7H4213.69L4192.69 12.88H4226.56L4249.29 16.7ZM4204.19 16.7H4167.8L4148.52 12.88H4183.15L4204.19 16.7ZM4159.08 16.7H4121.96L4104.41 12.88H4139.8L4159.08 16.7ZM4167.66 18.4L4195.47 23.91H4155.08L4129.75 18.44L4167.66 18.4ZM4147.09 23.91H4105.95L4083.12 18.44H4121.76L4147.09 23.91ZM4098.71 23.91H4056.8L4036.49 18.44H4075.88L4098.71 23.91ZM4050.33 23.91H3988.56L3986.02 22.91C3982.67 21.64 3979.25 20.37 3975.87 19.14L3973.71 18.4H4030L4050.33 23.91ZM3969.44 18.58C3971.57 19.3 3973.71 20.01 3975.82 20.77C3978.64 21.77 3981.49 22.82 3984.34 23.91H3973.81L3929.48 23.63C3928.98 23.42 3928.48 23.17 3928.01 22.96C3924.58 21.44 3921.17 19.96 3917.89 18.64L3916.73 18.18L3969.44 18.58ZM3929.37 25.26C3932.2 26.53 3935.03 27.85 3937.8 29.26C3940.1 30.38 3942.46 31.6 3944.8 32.82L3885.8 32.67C3883.5 31.19 3881.17 29.77 3878.8 28.34C3876.8 27.17 3874.86 26.05 3872.9 24.93L3929.37 25.26ZM3878.6 29.94C3880.07 30.81 3881.54 31.72 3883.01 32.64L3823.54 32.44C3822.59 31.67 3821.62 30.91 3820.68 30.2C3818.05 28.2 3815.38 26.33 3812.75 24.54L3869.7 24.9C3872.62 26.44 3875.62 28.16 3878.58 29.94H3878.6ZM3820.32 31.82C3820.6 32.03 3820.87 32.23 3821.12 32.44L3761.23 32.23C3758.35 29.33 3755.44 26.63 3752.53 24.14L3809.98 24.49C3810.17 24.64 3810.37 24.75 3810.56 24.9C3813.78 27.04 3817.06 29.38 3820.3 31.82H3820.32ZM3823.32 34.17C3825.54 35.9 3827.76 37.68 3829.95 39.57C3831.46 40.8255 3833.07 41.9496 3834.77 42.93H3772.89L3770.64 41.6C3768.64 40.38 3766.48 37.99 3764.43 35.7C3763.9 35.14 3763.43 34.52 3762.88 33.96L3823.32 34.17ZM3838.05 44.61L3839.57 45.37L3850.47 50.51H3785.72L3775.77 44.61H3838.05ZM3796.87 58.92H3727.87L3719.42 52.25H3785.55L3796.87 58.92ZM3788.61 52.25H3854.07L3868.19 58.92H3799.89L3788.61 52.25ZM3871.79 60.65L3887.84 68.24H3815.64L3802.8 60.65H3871.79ZM3891.45 69.92L3909.78 78.62H3833.19C3832.99 78.5197 3832.79 78.4026 3832.61 78.27L3818.53 69.92H3891.45ZM3913.33 80.36C3913.6 80.51 3913.91 80.61 3914.21 80.76C3916.28 81.9289 3918.49 82.8199 3920.79 83.41C3923.67 83.97 3926.52 84.48 3929.35 85.09C3929.69 85.09 3930.02 85.24 3930.35 85.29L3852.8 84.89C3851.66 84.58 3850.52 84.28 3849.3 83.97C3846.81 83.36 3844.15 82.75 3840.96 82.09C3839.35 81.7199 3837.79 81.1382 3836.33 80.36H3913.33ZM3938 87.03C3940.94 87.74 3943.66 88.5 3946.29 89.27C3949.18 90.13 3951.98 91 3954.67 91.97C3957.08 92.83 3959.47 93.75 3961.77 94.72L3875.06 93.9C3874.67 93.7 3874.31 93.44 3873.93 93.24C3871.28 91.7915 3868.56 90.4831 3865.77 89.32C3863.44 88.32 3861.03 87.43 3858.48 86.62L3938 87.03ZM3874.92 95.63C3877.23 96.91 3879.5 98.33 3881.72 99.86C3884.5 101.767 3887.17 103.823 3889.72 106.02C3892.49 108.397 3895.14 110.913 3897.65 113.56C3898.01 113.91 3898.37 114.37 3898.73 114.73L3803.41 114.32C3802.3 112.64 3801.19 110.96 3800.08 109.43C3797.73 106.165 3795.16 103.071 3792.37 100.17C3790.51 98.2597 3788.54 96.4568 3786.47 94.77L3874.92 95.63ZM3900.24 116.44C3902.01 118.44 3903.76 120.44 3905.51 122.6C3907.05 124.523 3909.07 126.014 3911.36 126.93C3912.1 127.264 3912.82 127.638 3913.52 128.05L3926.64 135.84H3825.24L3815.14 127.84C3814.41 127.281 3813.63 126.786 3812.81 126.36C3810.64 125.31 3808.85 123.598 3807.71 121.47C3806.66 119.59 3805.55 117.8 3804.47 116.07L3900.24 116.44ZM3929.52 137.44L3960.52 155.82H3850.66L3827.4 137.44H3929.52ZM3932.57 137.44H4034L4072.8 155.82H3963.6L3932.57 137.44ZM4037.74 137.44H4138.5L4185.06 155.82H4076.53L4037.74 137.44ZM4142.91 137.44H4242.91L4297.23 155.82H4189.43L4142.91 137.44ZM4248.11 137.44H4347.46L4409.51 155.82H4302.43L4248.11 137.44ZM4308.89 124.44C4308.14 124.24 4307.39 124.04 4306.67 123.83C4304.61 123.361 4302.6 122.691 4300.67 121.83C4297.96 120.48 4295.27 119.18 4292.55 117.93H4396.41L4462.41 135.86H4347.36L4308.89 124.44ZM4402.89 117.9H4487.38L4561.56 135.83H4468.93L4402.89 117.9ZM4494.62 117.9H4578.36L4660.67 135.83H4568.79L4494.62 117.9ZM4586.35 117.9H4669.35L4759.78 135.83H4668.66L4586.35 117.9ZM4768.35 137.53L4861.08 155.92H4760.84L4676.45 137.53H4768.35ZM4777.09 137.53H4868.23L4969.3 155.92H4869.82L4777.09 137.53ZM4877.73 137.53H4968.11L5077.51 155.92H4978.79L4877.73 137.53ZM4978.37 137.53H5088.06L5203.31 155.92H5087.76L4978.37 137.53ZM5098.85 137.53H5187.93L5311.53 155.92H5214.1L5098.85 137.53ZM5199.49 137.53H5287.81L5419.74 155.92H5323.08L5199.49 137.53ZM5300.13 137.53H5387.69L5527.95 155.92H5432.06L5300.13 137.53ZM5287.93 135.83L5159.26 117.9H5237.92L5374.72 135.83H5287.93ZM5147.06 116.2L5023.88 99H5094L5224.95 116.16L5147.06 116.2ZM5011.68 97.3L4946.94 88.3H5012.18L5081.02 97.3H5011.68ZM4934.68 86.58L4890.18 80.38H4951.84L4999.16 86.58H4934.68ZM4877.98 78.68L4815.26 69.94H4872.19L4938.87 78.68H4877.98ZM4803.11 68.24L4748.44 60.62H4801.14L4859.26 68.24H4803.11ZM4736.23 58.92L4689.15 52.36H4738.15L4788.2 58.92H4736.23ZM4677 50.66L4627.27 43.73H4672.27L4725.15 50.66H4677ZM4615 42.03L4562.22 34.67H4603.15L4659.27 42.03H4615ZM4550 32.97L4497.21 25.61H4534.04L4590.16 32.97H4550ZM4485 23.91L4445.47 18.44H4479L4521.06 23.95L4485 23.91ZM4433.23 16.7L4405.79 12.88H4436.85L4466.02 16.7H4433.23ZM4393.59 11.18L4375.18 8.61H4404.29L4423.87 11.18H4393.59ZM4381.28 11.18H4350.28L4333 8.61H4362.88L4381.28 11.18ZM4338.68 11.18H4306.87L4290.78 8.61H4321.42L4338.68 11.18ZM4296.08 11.18H4226.62L4211.35 8.61H4280L4296.08 11.18ZM4216.36 11.18H4183.26L4169.15 8.61H4201.09L4216.36 11.18ZM4173.76 11.18H4139.9L4127 8.61H4159.69L4173.76 11.18ZM4131.16 11.18H4096.55L4084.77 8.61H4118.22L4131.16 11.18ZM4088.56 11.18H4053.19L4042.57 8.61H4076.78L4088.56 11.18ZM4096.36 12.88L4114 16.7H4076.12L4060.31 12.88H4096.36ZM4068.81 16.7H4030.19L4016.1 12.88H4053L4068.81 16.7ZM4023.7 16.7H3968.64L3965.58 15.7C3962.58 14.7 3959.47 13.77 3956.46 12.9H4009.61L4023.7 16.7ZM3912 18.08C3913.86 18.79 3915.75 19.45 3917.6 20.21C3920.16 21.21 3922.79 22.35 3925.42 23.52L3869.77 23.22L3868.94 22.76C3865.62 20.98 3862.26 19.3 3858.94 17.76C3858.89 17.76 3858.86 17.71 3858.8 17.71L3912 18.08ZM3866.36 23.22L3810.13 22.86C3807.13 20.86 3804.03 18.99 3800.98 17.26L3854.91 17.67C3856.19 18.23 3857.46 18.79 3858.74 19.4C3861.28 20.57 3863.83 21.89 3866.38 23.22H3866.36ZM3807.25 22.81L3750.45 22.44C3748.01 20.44 3745.55 18.51 3743.11 16.78L3797.67 17.24C3798.67 17.7 3799.67 18.24 3800.61 18.77C3802.83 20.06 3805.05 21.44 3807.27 22.81H3807.25ZM3748.15 22.44L3690.81 22.09C3688.98 20.09 3687.12 18.09 3685.27 16.33L3740.47 16.79C3740.89 17.05 3741.33 17.35 3741.78 17.66C3743.88 19.09 3746 20.72 3748.15 22.44ZM3750.32 24.18C3750.65 24.48 3751.04 24.79 3751.43 25.09C3754.03 27.28 3756.64 29.73 3759.22 32.27L3698.88 32.07C3696.83 29.27 3694.78 26.62 3692.75 24.23C3692.64 24.07 3692.5 23.97 3692.39 23.82L3750.32 24.18ZM3761 33.96C3762 34.96 3763 36.05 3764 37.17C3765.77 39.3154 3767.78 41.2483 3770 42.93H3707.86C3705.6 40.9359 3703.58 38.6762 3701.86 36.2C3701.28 35.34 3700.69 34.57 3700.11 33.76L3761 33.96ZM3772.73 44.66L3782.73 50.56H3717.32L3710.73 45.37C3710.45 45.17 3710.17 44.91 3709.89 44.71L3772.73 44.66ZM3725.54 58.92H3655.94L3650.28 52.25H3717.08L3725.54 58.92ZM3727.7 60.65L3737.32 68.24H3663.79L3657.36 60.65H3727.7ZM3730.08 60.65H3799.76L3812.6 68.24H3739.7L3730.08 60.65ZM3815.49 69.92L3830.15 78.62H3752.88L3741.88 69.92H3815.49ZM3833.07 80.3C3835.46 81.8611 3838.09 83.0167 3840.86 83.72C3842.69 84.07 3844.32 84.48 3845.86 84.84L3767.53 84.44C3765.48 83.78 3763.29 83.12 3760.85 82.5C3758.94 82.0395 3757.11 81.3016 3755.42 80.31L3833.07 80.3ZM3852.67 86.57L3857.41 87.99C3860.29 88.91 3862.96 89.93 3865.56 90.99C3867.64 91.85 3869.67 92.82 3871.66 93.84L3784.26 92.97C3781.88 91.1925 3779.36 89.6107 3776.72 88.24C3775.25 87.47 3773.72 86.76 3772.12 86.1L3852.67 86.57ZM3784.24 94.82C3786.97 96.8865 3789.53 99.167 3791.89 101.64C3794.64 104.514 3797.18 107.578 3799.49 110.81C3800.29 111.93 3801.07 113.15 3801.87 114.32L3706.27 113.91C3704.39 109.25 3702.15 104.741 3699.58 100.42C3698.2 98.1187 3696.65 95.9227 3694.95 93.85L3784.07 94.72C3784.17 94.77 3784.2 94.82 3784.23 94.82H3784.24ZM3825 137.49L3848.27 155.87H3737.78L3722.26 137.49H3825ZM3850.43 157.61L3852.43 159.18C3853.18 159.8 3853.95 160.46 3854.7 161.18C3856.45 162.76 3858.28 164.44 3860.11 164.95C3862.52 165.66 3865.11 166.43 3867.7 167.29C3870.29 168.129 3872.84 169.096 3875.33 170.19C3875.86 170.45 3876.33 170.7 3876.88 170.91L3757.6 169.84C3756.38 168.865 3755.08 167.996 3753.72 167.24C3751.5 166.027 3749.19 164.987 3746.81 164.13C3744.76 163.37 3742.6 161.64 3740.19 158.79L3739.19 157.62L3850.43 157.61ZM3875.56 168.44C3873.05 167.342 3870.49 166.374 3867.88 165.54C3865.27 164.67 3862.7 163.91 3860.26 163.2C3858.56 162.69 3856.82 161.11 3855.13 159.58C3854.35 158.87 3853.6 158.21 3852.82 157.58H3963.43L3968.48 160.58C3969.2 160.99 3969.95 161.5 3970.67 161.96C3972.44 163.247 3974.39 164.258 3976.46 164.96C3979.1 165.67 3981.73 166.34 3984.39 167.1C3987.3 167.91 3989.91 168.73 3992.39 169.49C3994.87 170.25 3996.97 171.07 3999.1 171.89L3880.54 170.89C3878.92 170.03 3877.31 169.22 3875.56 168.44ZM3992.49 167.88C3990.05 167.07 3987.49 166.3 3984.49 165.44C3981.83 164.67 3979.2 164.01 3976.56 163.3C3974.55 162.59 3972.66 161.578 3970.96 160.3C3970.21 159.84 3969.49 159.3 3968.74 158.92L3966.44 157.55H4076.35L4084.62 161.47C4085.28 161.77 4085.98 162.13 4086.62 162.47C4088.57 163.536 4090.62 164.388 4092.75 165.01C4095.47 165.67 4098.16 166.34 4100.87 167.01C4103.58 167.68 4106.31 168.44 4109.03 169.2C4111.75 169.96 4114.57 170.83 4117.21 171.64C4118.59 172.1 4119.92 172.51 4121.21 172.97L4003.36 171.9C4002.42 171.49 4001.48 171.08 4000.48 170.68C3998 169.78 3995.37 168.81 3992.49 167.89V167.88ZM4117.49 170.02C4114.85 169.21 4112.08 168.34 4109.28 167.58C4106.48 166.82 4103.82 166.1 4101.1 165.39C4098.38 164.68 4095.67 164.01 4092.98 163.39C4090.9 162.758 4088.89 161.924 4086.98 160.9C4086.29 160.54 4085.62 160.23 4084.98 159.9L4080.21 157.66H4189.43L4204.43 163.66C4207.1 164.675 4209.84 165.477 4212.63 166.06C4215.35 166.72 4218.09 167.33 4220.81 168.06C4223.53 168.79 4226.27 169.44 4229.02 170.15C4231.77 170.86 4234.51 171.63 4237.25 172.39C4239.36 173 4241.5 173.61 4243.6 174.28L4126.4 173.21C4126.23 173.11 4126.01 173.05 4125.79 172.95C4123.11 171.87 4120.4 170.95 4117.46 170.03L4117.49 170.02ZM4237.38 170.58C4234.64 169.82 4231.89 169.05 4229.15 168.34C4226.41 167.63 4223.66 166.92 4220.94 166.25L4212.76 164.25C4210 163.644 4207.28 162.842 4204.63 161.85L4193.82 157.58H4302.35L4320.73 163.79C4323.34 164.65 4326 165.27 4328.58 165.88L4329.05 165.98C4331.82 166.59 4334.57 167.25 4337.34 167.91L4345.66 169.91C4348.43 170.57 4351.2 171.29 4354 172C4356.8 172.71 4359.58 173.47 4362.38 174.19C4363.57 174.49 4364.79 174.85 4365.98 175.19L4249.25 174.19C4248.06 173.78 4246.86 173.37 4245.67 173.02C4242.87 172.17 4240.12 171.36 4237.35 170.59L4237.38 170.58ZM4353.13 137.48H4468.72L4536.44 155.87H4415.19L4353.13 137.48ZM4475.21 137.48H4568.61L4644.67 155.87H4542.9L4475.21 137.48ZM4575.84 137.48H4668.49L4752.88 155.87H4651.88L4575.84 137.48ZM4760.68 157.56L4846.46 176.25H4736.2L4658.9 157.56H4760.68ZM4768.68 157.56H4869.68L4963.93 176.25H4854.42L4768.68 157.56ZM4878.42 157.56H4978.67L5081.39 176.25H4972.63L4878.42 157.56ZM4988.17 157.56H5087.65L5198.85 176.25H5090.85L4988.17 157.56ZM5097.91 157.56H5214L5331.14 176.25H5209.14L5097.91 157.56ZM5224.79 157.56H5322.98L5448.6 176.25H5341.9L5224.79 157.56ZM5334.54 157.56H5431.97L5566 176.26H5460.1L5334.54 157.56ZM5444.28 157.56H5540.95L5683.51 176.25H5578.34L5444.28 157.56ZM5554.03 157.56H5649.93L5800.93 176.25H5696.56L5554.03 157.56ZM5541.03 155.87L5400.77 137.48H5487.56L5636.16 155.87H5541.03ZM5387.8 135.78L5251 117.86H5328.9L5473.82 135.79L5387.8 135.78ZM5238 116.16L5107 99H5176.34L5315.07 116.16H5238ZM5094.1 97.3L5025.26 88.3H5089.73L5162.67 97.3H5094.1ZM5012.29 86.58L4965 80.38H5025.89L5076.02 86.58H5012.29ZM4952 78.68L4885.32 69.94H4941.48L5012.12 78.68H4952ZM4872.35 68.24L4814.22 60.62H4866.15L4927.73 68.24H4872.35ZM4801.24 58.92L4751.19 52.36H4799.38L4852.38 58.92H4801.24ZM4738.24 50.66L4685.36 43.73H4729.63L4785.63 50.66H4738.24ZM4672.38 42.03L4616.26 34.67H4656.43L4715.89 42.03H4672.38ZM4603.29 32.97L4547.17 25.61H4583.23L4642.69 32.97H4603.29ZM4534.19 23.91L4492.11 18.44H4524.9L4569.46 23.95L4534.19 23.91ZM4479.19 16.7L4450 12.88H4480.28L4511.19 16.7H4479.19ZM4437 11.18L4417.41 8.61H4445.76L4466.51 11.18H4437ZM4404.44 6.91L4393.15 5.44H4420.06L4432.06 6.92L4404.44 6.91ZM4391.36 6.91H4363L4352.4 5.44H4380.07L4391.36 6.91ZM4350.7 6.91H4321.59L4311.64 5.44H4340.08L4350.7 6.91ZM4310.03 6.91H4280.16L4270.89 5.44H4300.09L4310.03 6.91ZM4269.37 6.91H4201.27L4192.47 5.44H4260.1L4269.37 6.91ZM4191.01 6.91H4159.85L4151.71 5.44H4182.21L4191.01 6.91ZM4150.35 6.91H4118.42L4111 5.44H4142.25L4150.35 6.91ZM4109.68 6.91H4077L4070.21 5.44H4102.21L4109.68 6.91ZM4069.01 6.91H4035.58L4029.46 5.44H4062.22L4069.01 6.91ZM4028.35 6.91H3994.16L3988.71 5.44H4022.22L4028.35 6.91ZM4035.35 8.61L4046 11.18H4009.88L4000.43 8.61H4035.35ZM4003.35 11.18H3950.53C3948.64 10.64 3946.74 10.13 3944.87 9.62C3943.52 9.27 3942.18 8.94 3940.87 8.62H3993.93L4003.35 11.18ZM3934.61 8.76C3937.84 9.5 3941.15 10.29 3944.47 11.18H3935.82L3896.4 10.84C3893.68 9.98 3890.97 9.16 3888.3 8.45L3934.61 8.76ZM3897.07 12.76C3900.48 13.83 3903.94 15.05 3907.38 16.27C3907.39 16.2618 3907.41 16.2574 3907.42 16.2574C3907.43 16.2574 3907.45 16.2618 3907.46 16.27L3855 15.94C3852.95 15.02 3850.87 14.1 3848.82 13.29C3847.88 12.88 3846.93 12.52 3845.99 12.17L3896.29 12.58C3896.61 12.63 3896.86 12.73 3897.11 12.78L3897.07 12.76ZM3848.63 14.9C3849.37 15.2 3850.12 15.56 3850.9 15.9L3797.8 15.49C3795.47 14.22 3793.12 12.99 3790.8 11.92C3790.66 11.87 3790.49 11.77 3790.35 11.72L3841.35 12.13C3843.81 13.03 3846.25 13.95 3848.67 14.92L3848.63 14.9ZM3790.6 13.54C3791.88 14.15 3793.16 14.77 3794.4 15.43L3740.61 15.02C3738.61 13.7 3736.61 12.42 3734.61 11.25L3786.41 11.66C3787.8 12.27 3789.22 12.88 3790.6 13.54ZM3737.87 15.02L3683.52 14.61C3683.52 14.56 3683.46 14.56 3683.44 14.51C3681.97 13.19 3680.5 11.96 3679.03 10.84L3731.49 11.25C3731.65 11.345 3731.82 11.4318 3731.99 11.51C3733.93 12.58 3735.9 13.75 3737.87 15.02ZM3681.22 14.56L3626.32 14.1C3625.65 13.19 3625.01 12.37 3624.32 11.56C3624.01 11.1509 3623.68 10.7602 3623.32 10.39L3676.41 10.79C3678 11.96 3679.61 13.19 3681.22 14.56ZM3683.27 16.29C3685.18 18.02 3687.1 20.01 3689.01 22.05L3631.25 21.64C3630.03 19.55 3628.79 17.64 3627.54 15.83L3683.27 16.29ZM3690.54 23.78C3691.12 24.39 3691.67 24.95 3692.23 25.61C3693.92 27.61 3695.61 29.79 3697.3 32.03L3636.19 31.82C3635.17 29.2527 3634.02 26.7394 3632.75 24.29C3632.58 23.98 3632.42 23.68 3632.22 23.37L3690.54 23.78ZM3698.54 33.71C3699.45 34.98 3700.37 36.15 3701.26 37.48C3702.58 39.4167 3704.09 41.2247 3705.75 42.88H3642.4V42.93L3640.79 40.99C3639.54 39.51 3638.21 36.56 3636.91 33.51L3698.54 33.71ZM3707.61 44.61C3708.52 45.42 3709.44 46.19 3710.3 46.85L3714.93 50.51H3648.82L3643.82 44.61H3707.61ZM3654.2 58.92H3584L3581.17 52.25H3648.55L3654.2 58.92ZM3655.62 60.65L3662.05 68.24H3587.91L3584.69 60.65H3655.62ZM3663.49 69.92L3670.78 78.52C3670.78 78.52 3670.78 78.52 3670.84 78.52H3592.1V78.57C3591.58 77.4 3591.1 75.98 3590.52 74.57C3589.94 73.16 3589.58 72.03 3589.08 70.91L3588.64 69.84L3663.49 69.92ZM3752.64 80.36C3755 82.2033 3757.73 83.5226 3760.64 84.23C3760.91 84.23 3761.16 84.38 3761.41 84.43L3682.25 83.97C3680.95 83.3956 3679.61 82.9013 3678.25 82.49C3676.87 82.0143 3675.58 81.2928 3674.45 80.36H3752.64ZM3767.44 86.16C3767.86 86.2695 3768.26 86.4065 3768.66 86.57C3771.34 87.5124 3773.95 88.635 3776.48 89.93C3778.23 90.8577 3779.93 91.8757 3781.58 92.98L3693.46 92.12C3693.16 91.81 3692.88 91.46 3692.58 91.12C3690.53 88.9958 3688.2 87.1621 3685.65 85.67L3767.44 86.16ZM3693.21 93.85C3695.37 96.2818 3697.3 98.9061 3698.98 101.69C3701.31 105.613 3703.36 109.697 3705.11 113.91L3609.2 113.51C3608.09 107.539 3606.57 101.652 3604.65 95.89C3604.29 94.89 3603.9 93.89 3603.52 92.98L3693.21 93.85ZM3705.86 115.65C3708.27 121.5 3710.52 125.65 3712.71 128.22L3719.11 135.81H3616.47L3614.56 131.33C3614.37 130.87 3614.15 130.33 3613.95 129.9C3611.93 125.439 3610.51 120.732 3609.71 115.9C3609.65 115.65 3609.63 115.49 3609.57 115.24L3705.86 115.65ZM3720.53 137.49L3736.05 155.87H3624.9C3624.74 155.42 3624.54 155.01 3624.38 154.6L3617.17 137.49H3720.53ZM3737.53 157.61L3739.72 160.2C3742.24 163.2 3744.51 165.04 3746.72 165.81C3749.07 166.603 3751.34 167.607 3753.51 168.81C3754 169.092 3754.47 169.399 3754.92 169.73L3634.81 168.66C3634.64 168.4 3634.45 168.1 3634.25 167.84C3632.84 166.124 3631.11 164.706 3629.15 163.67C3628.04 163.06 3626.85 160.36 3625.69 157.56L3737.53 157.61ZM3757.53 171.46C3758.53 172.22 3759.47 172.99 3760.39 173.85C3763.03 176.42 3765.36 179.294 3767.32 182.41C3770.05 186.763 3772.39 191.347 3774.32 196.11C3775.9 200.13 3777.84 203.999 3780.12 207.67H3646.56C3645.66 205.177 3645.01 202.601 3644.62 199.98C3643.42 192.596 3641.68 185.309 3639.41 178.18C3638.51 175.476 3637.35 172.867 3635.94 170.39L3757.53 171.46ZM3907.18 196.72C3904.77 192.987 3902.09 189.429 3899.18 186.07C3896.73 183.253 3894.08 180.616 3891.25 178.18C3888.85 176.146 3886.3 174.291 3883.63 172.63L4003.41 173.7C4005.13 174.46 4006.82 175.23 4008.48 176.04C4011.23 177.42 4013.97 178.94 4016.58 180.57C4019.35 182.31 4022.1 184.19 4024.73 186.23C4027.59 188.423 4030.34 190.759 4032.97 193.23C4035.77 195.88 4038.57 198.78 4041.29 201.84C4043.32 204.144 4045.68 206.136 4048.29 207.75H3916.35L3915.07 206.75C3912.47 204.66 3909.81 200.84 3907.12 196.72H3907.18ZM4041.74 200.38C4039.02 197.28 4036.19 194.38 4033.36 191.73C4030.53 189.08 4027.87 186.84 4025.07 184.65C4022.27 182.46 4019.64 180.65 4016.87 178.94C4014.1 177.23 4011.49 175.79 4008.71 174.41C4008.24 174.16 4007.77 173.95 4007.33 173.75L4126.33 174.82C4128.91 175.82 4131.43 176.75 4133.87 177.82C4136.73 179.04 4139.53 180.32 4142.19 181.64C4145.05 183.02 4147.85 184.54 4150.57 186.07C4153.29 187.6 4156.22 189.43 4159 191.27C4161.78 193.11 4164.71 195.19 4167.48 197.27C4170.25 199.35 4173.25 201.8 4176.05 204.27C4177.86 205.786 4179.91 206.993 4182.12 207.84H4051.22L4050.03 207.12C4046.88 205.365 4044.06 203.085 4041.68 200.38H4041.74ZM4176.44 202.62C4173.64 200.18 4170.75 197.84 4167.84 195.62C4164.93 193.4 4162.19 191.44 4159.3 189.56C4156.41 187.68 4153.67 185.99 4150.85 184.36C4148.03 182.73 4145.3 181.31 4142.44 179.88C4139.75 178.56 4136.95 177.28 4134.1 176.06C4133.1 175.65 4132.05 175.2 4130.99 174.79L4249.2 175.86C4250.75 176.37 4252.3 176.86 4253.85 177.39C4256.63 178.39 4259.43 179.39 4262.2 180.39C4264.97 181.39 4267.88 182.63 4270.57 183.75C4273.26 184.87 4276.23 186.2 4279 187.52C4281.77 188.84 4284.71 190.27 4287.49 191.69C4290.27 193.11 4293.2 194.75 4296.03 196.33C4298.86 197.91 4301.79 199.74 4304.62 201.47L4306.31 202.54C4308.51 204.07 4310.85 205.383 4313.31 206.46L4316.44 207.69H4186V207.79L4185 207.28C4184.28 206.92 4183.55 206.62 4182.86 206.28C4180.52 205.42 4178.33 204.184 4176.38 202.62H4176.44ZM4313.52 204.86C4311.11 203.781 4308.8 202.486 4306.62 200.99C4306.06 200.64 4305.48 200.28 4304.93 199.92C4302.1 198.14 4299.23 196.41 4296.3 194.73C4293.48 193.1 4290.62 191.57 4287.74 190.1C4284.86 188.63 4282.11 187.24 4279.22 185.92C4276.33 184.6 4273.6 183.37 4270.77 182.15C4267.94 180.93 4265.22 179.86 4262.37 178.79C4259.79 177.79 4257.18 176.86 4254.57 175.99L4372.17 177.06C4374.52 177.77 4376.85 178.43 4379.17 179.2C4382 180.06 4384.8 180.98 4387.63 181.95C4390.46 182.92 4393.28 183.88 4396.14 184.95C4399 186.02 4401.82 187.04 4404.68 188.11C4407.54 189.18 4410.39 190.35 4413.27 191.52C4416.15 192.69 4419.01 193.91 4421.93 195.19C4424.85 196.47 4427.72 197.78 4430.6 199.19C4433.48 200.6 4436.43 201.99 4439.34 203.42C4442.2 204.875 4445.15 206.131 4448.18 207.18L4450.49 207.95H4320.76L4313.52 204.86ZM4494.65 176.26C4493.37 175.9 4492.07 175.54 4490.79 175.26C4487.99 174.49 4485.18 173.78 4482.38 173.07C4479.58 172.36 4476.78 171.64 4474.01 170.98L4465.64 168.98C4462.86 168.32 4460.09 167.71 4457.29 167.05C4454.49 166.39 4451.75 165.77 4448.97 165.16L4440.68 163.33C4438.68 162.87 4436.61 162.26 4434.68 161.65C4433.96 161.45 4433.21 161.19 4432.49 160.99L4421.03 157.59H4542.77L4611.61 176.28L4494.65 176.26ZM4549.22 157.57H4651.72L4729 176.26H4618L4549.22 157.57ZM4736 177.96L5001.2 242.06H4860.39L4624.25 177.96H4736ZM4743.23 177.96H4854.23L5148.5 242.06H5008.44L4743.23 177.96ZM4862.23 177.96H4972.47L5295.81 242.06H5156.49L4862.23 177.96ZM4981.23 177.96H5090.71L5443.12 242.06H5304.55L4981.23 177.96ZM5100.23 177.96H5208.96L5590.44 242.06H5452.6L5100.23 177.96ZM5219.23 177.96H5341.81L5743.7 242.06H5600.7L5219.23 177.96ZM5352.6 177.96H5460L5891 242.06H5754.5L5352.6 177.96ZM5471.6 177.96H5578.27L6038.27 242.06H5902.5L5471.6 177.96ZM5590.6 177.96H5696.51L6185.61 242.06H6050.61L5590.6 177.96ZM5709.6 177.96H5814.74L6332.91 242.06H6198.62L5709.6 177.96ZM5828.6 177.96H5932.98L6480.22 242.06H6346.68L5828.6 177.96ZM5814.87 176.26L5663.87 157.57H5759L5918.52 176.26H5814.87ZM5650 155.88L5501.4 137.49H5587.4L5744.34 155.88H5650ZM5487.66 135.79L5342.73 117.86H5419.86L5572.92 135.79H5487.66ZM5329 116.16L5190.26 99H5258.83L5405.35 116.16H5329ZM5176.51 97.3L5103.58 88.3H5167.3L5244.3 97.3H5176.51ZM5089.84 86.58L5039.71 80.38H5099.84L5152.78 86.58H5089.84ZM5026 78.68L4955.35 69.94H5010.75L5085.36 78.68H5026ZM4941.58 68.24L4880 60.62H4931.17L4996.17 68.24H4941.58ZM4866.25 58.92L4813.25 52.36H4860.68L4916.68 58.92H4866.25ZM4799.48 50.66L4743.48 43.73H4787L4846.16 50.66H4799.48ZM4729.71 42.03L4670.26 34.67H4709.66L4772.46 42.03H4729.71ZM4656.51 32.97L4597.05 25.61H4632.35L4695.15 32.97H4656.51ZM4583.31 23.91L4538.75 18.44H4570.75L4617.82 23.95L4583.31 23.91ZM4525 16.7L4494.1 12.88H4523.62L4556.26 16.7H4525ZM4480.36 11.18L4459.61 8.61H4487.2L4509.11 11.18H4480.36ZM4445.87 6.91L4433.87 5.43H4460.02L4472.65 6.91H4445.87ZM4420.16 3.73L4405.16 1.87H4429.69L4445.55 3.73H4420.16ZM4406.32 3.73H4380.18L4366 1.87H4391.29L4406.32 3.73ZM4367.1 3.73H4340.2L4326.86 1.87H4352.92L4367.1 3.73ZM4327.88 3.73H4300.21L4287.72 1.87H4314.55L4327.88 3.73ZM4288.66 3.73H4260.23L4248.58 1.87H4276.17L4288.66 3.73ZM4249.44 3.73H4182.35L4171.29 1.87H4237.79L4249.44 3.73ZM4172.09 3.73H4142.37L4132.15 1.87H4161L4172.09 3.73ZM4132.87 3.73H4102.39L4093 1.87H4122.64L4132.87 3.73ZM4093.64 3.73H4062.4L4053.88 1.87H4084.27L4093.64 3.73ZM4054.42 3.73H4022.42L4014.73 1.87H4045.88L4054.42 3.73ZM4015.19 3.73H3982.45L3975.61 1.87H4007.5L4015.19 3.73ZM3982.19 5.43L3987.64 6.91H3933.64C3931.35 6.39 3929.04 5.89667 3926.71 5.43H3982.19ZM3919.12 5.6C3920.64 5.85 3922.2 6.16 3923.72 6.46C3924.45 6.6 3925.18 6.77 3925.93 6.91H3925.21V6.97L3881.8 6.67C3880.02 6.21 3878.25 5.8 3876.45 5.34L3919.12 5.6ZM3881.77 8.44C3883.44 8.85 3885.07 9.31 3886.71 9.71C3887.98 10.07 3889.29 10.43 3890.59 10.83L3841.46 10.43C3840.51 10.07 3839.6 9.71 3838.66 9.43C3837.33 8.97 3835.97 8.51 3834.66 8.1L3881.77 8.44ZM3829 6.31C3828.78 6.31 3828.59 6.16 3828.36 6.11C3827.12 5.75 3825.84 5.4 3824.59 5.11L3868.21 5.36C3870.29 5.77 3872.34 6.23 3874.39 6.64L3829 6.31ZM3828.92 8.04C3831.39 8.76 3833.92 9.57 3836.43 10.39L3786.58 9.98C3784.72 9.16 3782.83 8.4 3780.98 7.69L3828.92 8.04ZM3776.12 5.96C3774.96 5.55 3773.77 5.19 3772.6 4.84L3817.33 5.09C3817.48 5.06538 3817.62 5.06538 3817.77 5.09C3819.32 5.45 3820.88 5.8 3822.43 6.21L3776.12 5.96ZM3776 7.64C3777.5 8.15 3779 8.64 3780.47 9.21C3781.05 9.42 3781.66 9.67 3782.24 9.93L3731.61 9.52C3730.14 8.76 3728.67 7.99 3727.2 7.28L3776 7.64ZM3723.2 5.55C3722.88 5.39095 3722.54 5.25397 3722.2 5.14L3720.51 4.53L3766.23 4.78C3767.5 5.09 3768.81 5.45 3770.08 5.78C3770.19 5.78 3770.31 5.78 3770.44 5.88L3723.2 5.55ZM3723.09 7.28C3724.75 7.94 3726.41 8.71 3728.09 9.52L3676.63 9.11C3675.71 8.45 3674.83 7.79 3673.91 7.23C3673.74 7.13 3673.55 7.03 3673.38 6.92L3723.09 7.28ZM3673.57 8.81C3673.7 8.87598 3673.82 8.96014 3673.93 9.06L3621.74 8.65C3621.02 7.89 3620.3 7.18 3619.58 6.52L3670.16 6.87C3671.29 7.44 3672.43 8.09 3673.57 8.81ZM3619.8 8.65L3566.87 8.25C3566.57 7.59 3566.23 6.92 3565.93 6.36C3565.9 6.30545 3565.86 6.25503 3565.82 6.21L3617.36 6.52C3618.17 7.18 3619 7.89 3619.8 8.65ZM3621.49 10.34C3622.3 11.2 3623.07 12.07 3623.82 12.98L3624.68 14.1L3569.17 13.65C3568.67 12.32 3568.17 11.05 3567.67 9.93L3621.49 10.34ZM3626.01 15.83C3627.29 17.62 3628.59 19.55 3629.87 21.64L3571.67 21.23C3571.06 19.09 3570.42 17.16 3569.78 15.38L3626.01 15.83ZM3630.89 23.37L3632.11 25.46C3633.19 27.5127 3634.16 29.6188 3635.02 31.77L3574.36 31.57C3573.66 28.57 3572.91 25.57 3572.19 22.96L3630.89 23.37ZM3635.72 33.51C3637.27 37.17 3638.72 40.58 3640.27 42.42L3640.68 42.93H3577.32C3576.46 40.38 3575.6 36.93 3574.74 33.3L3635.72 33.51ZM3642.12 44.61L3647.12 50.51H3580.47L3577.97 44.61H3642.12ZM3582.84 58.92H3512.22V52.25H3580L3582.84 58.92ZM3583.53 60.65L3586.75 68.24H3512.22V60.65H3583.53ZM3587.47 69.97L3588.36 72.05C3588.83 73.18 3589.3 74.4 3589.77 75.67C3590.16 76.67 3590.55 77.67 3590.94 78.67H3512.22V69.97H3587.47ZM3591.66 80.36C3592.41 81.93 3593.13 83.11 3593.93 83.46C3593.93 83.46 3593.99 83.46 3594.02 83.46L3515.94 83.06H3512.22V80.36H3591.66ZM3592.93 80.3H3672.43C3673.92 81.8578 3675.71 83.0904 3677.7 83.92L3597.07 83.51C3596.16 82.8355 3595.18 82.2559 3594.15 81.78C3593.61 81.4174 3593.18 80.9026 3592.93 80.3ZM3682.16 85.7C3683.22 86.1415 3684.25 86.6526 3685.24 87.23C3687.53 88.5875 3689.65 90.2306 3691.53 92.12L3602.72 91.25C3601.86 89.3005 3600.75 87.4691 3599.42 85.8C3599.26 85.6 3599.06 85.45 3598.9 85.24L3682.16 85.7ZM3603.89 96.85C3605.71 102.318 3607.16 107.9 3608.24 113.56L3517.18 113.2H3512.18V92.12H3515.87L3602.29 92.98C3602.86 94.16 3603.39 95.44 3603.89 96.85ZM3517.16 114.85L3608.57 115.21C3608.66 115.62 3608.74 116.02 3608.82 116.43C3609.65 121.438 3611.14 126.315 3613.23 130.94C3613.42 131.4 3613.62 131.86 3613.84 132.37L3615.28 135.78H3512.22V114.88L3517.16 114.85ZM3616 137.49L3623.66 155.62C3623.68 155.71 3623.72 155.795 3623.77 155.87H3512.25V137.49H3616ZM3624.46 157.61C3625.93 161.17 3627.29 164.53 3628.81 165.35C3630.43 166.196 3631.9 167.316 3633.14 168.66L3517.4 167.66C3515.69 167.66 3513.97 167.66 3512.25 167.66V157.66L3624.46 157.61ZM3517.38 169.37L3634.47 170.37C3636.24 173.068 3637.63 175.999 3638.6 179.08C3640.84 186.07 3642.55 193.216 3643.73 200.46C3644.14 202.91 3644.71 205.329 3645.45 207.7H3512.22V169.3C3513.94 169.32 3515.66 169.32 3517.38 169.37ZM3646.06 209.44C3646.57 210.707 3647.14 211.945 3647.78 213.15C3648.22 214.02 3648.69 214.94 3649.14 215.96L3660.14 241.96H3512.24V209.44H3646.06ZM3649.83 214.94C3649.36 213.82 3648.83 212.94 3648.42 211.94C3648.01 210.94 3647.59 210.36 3647.2 209.4H3781.29C3781.4 209.524 3781.5 209.658 3781.59 209.8L3808.77 241.99H3661.25L3649.83 214.94ZM3783 209.44H3916.14L3957.38 242.03H3810.48L3783 209.44ZM3918.5 209.44H4051L4106 242.03H3959.77L3918.5 209.44ZM4054 209.44H4185.82L4254.56 242.03H4109L4054 209.44ZM4189.54 209.44H4320.7L4403.19 242.03H4258.31L4189.54 209.44ZM4325.07 209.44H4455.5L4551.71 242.03H4407.6L4325.07 209.44ZM4585.57 206.33L4582.8 205.57C4580.74 205.073 4578.72 204.442 4576.75 203.68C4573.81 202.51 4570.87 201.34 4567.96 200.22C4565.05 199.1 4562.11 197.98 4559.23 196.91C4556.35 195.84 4553.43 194.77 4550.52 193.75L4541.87 190.75L4533.25 187.84C4530.39 186.84 4527.54 185.96 4524.68 185.09C4521.82 184.22 4518.97 183.31 4516.14 182.45C4513.31 181.59 4510.46 180.77 4507.63 179.95C4505.33 179.29 4503.03 178.63 4500.73 178H4617.73L4853.87 242.1H4706.28L4585.57 206.33ZM4866.57 243.75H5008.15L5176.85 284.53H5016.86L4866.57 243.75ZM5015.39 243.75H5156.3L5343.49 284.53H5184.17L5015.39 243.75ZM5164.21 243.75H5304.29L5509.98 284.53H5351.49L5164.21 243.75ZM5313.04 243.75H5452.36L5676.54 284.53H5518.8L5313.04 243.75ZM5461.86 243.75H5600.43L5843.1 284.53H5686.11L5461.86 243.75ZM5610.69 243.75H5754.3L6010 284.54H5853.43L5610.69 243.75ZM5765.02 243.75H5902.29L6176.43 284.53H6020.75L5765.02 243.75ZM5913.85 243.75H6050.36L6342.99 284.53H6187.99L5913.85 243.75ZM6062.67 243.75H6198.5L6509.63 284.53H6355.39L6062.67 243.75ZM6211.5 243.75H6346.5L6676.12 284.53H6522.71L6211.5 243.75ZM6360.33 243.75H6494.55L6842.66 284.53H6690L6360.33 243.75ZM6627.33 242.05H6494.73L5947.5 177.95H6051.12L6627.33 242.05ZM6035.75 176.25H5933L5773.49 157.56H5867.86L6035.75 176.25ZM5852.49 155.87H5759L5602 137.49H5687.26L5852.49 155.87ZM5672 135.79H5587.5L5434.45 117.86H5510.82L5672 135.79ZM5495.53 116.16H5420L5273.44 99H5341.25L5495.53 116.16ZM5326 97.3H5259L5182 88.3H5245L5326 97.3ZM5229.6 86.58H5167.42L5114.48 80.38H5173.84L5229.6 86.58ZM5158.6 78.68H5100L5025.4 69.94H5080L5158.6 78.68ZM5064.68 68.24H5010.82L4945.82 60.62H4996.22L5064.68 68.24ZM4980.9 58.92H4931.26L4875.26 52.36H4921.92L4980.9 58.92ZM4906.63 50.66H4860.74L4801.58 43.73H4844.33L4906.63 50.66ZM4829 42.03H4787L4724.2 34.67H4762.84L4829 42.03ZM4747.59 32.97H4709.72L4647 25.61H4681.54L4747.59 32.97ZM4666.17 23.91H4632.41L4585.39 18.44H4616.65L4666.17 23.91ZM4601.32 16.7H4570.83L4538.19 12.88H4567L4601.32 16.7ZM4551.67 11.18H4523.67L4501.76 8.61H4528.58L4551.67 11.18ZM4513.31 6.91H4487.3L4474.67 5.44H4500.05L4513.31 6.91ZM4484.72 3.73H4460.11L4444.25 1.87H4468.02L4484.72 3.73ZM3904.7 3.31C3905.7 3.44 3906.7 3.57 3907.7 3.73H3893.64L3868.19 3.6C3867.53 3.45 3866.84 3.35 3866.19 3.2L3904.7 3.31ZM3855.54 3.21C3856.32 3.31 3857.09 3.46 3857.87 3.56L3817.33 3.36L3816 3.05L3855.54 3.21ZM3806.35 3C3806.63 3 3806.88 3 3807.16 3.1L3808.1 3.26L3766.31 3.05L3765.68 2.9L3806.35 3ZM3757.19 2.85L3758.08 3L3715.35 2.75C3715.35 2.75 3715.21 2.7 3715.16 2.7L3757.19 2.85ZM3708.06 2.7C3708.11 2.7 3708.17 2.75 3708.23 2.75L3691.37 2.65L3708.06 2.7ZM3715.27 4.44C3716.35 4.74 3717.4 5.1 3718.46 5.44L3670.29 5.08C3669.71 4.78 3669.1 4.42 3668.52 4.16L3715.27 4.44ZM3664.42 4.18C3665.14 4.44 3665.86 4.8 3666.58 5.1L3617.58 4.74C3617.19 4.44 3616.8 4.18 3616.41 3.88L3664.42 4.18ZM3613.48 3.88C3613.97 4.14144 3614.46 4.42849 3614.92 4.74L3564.74 4.44C3564.57 4.18 3564.4 3.93 3564.24 3.67L3613.48 3.88ZM3512.22 3.32H3517.22L3562.53 3.57C3562.72 3.83 3562.94 4.13 3563.16 4.39L3515.95 4.03H3512.23L3512.22 3.32ZM3512.22 5.71H3515.94L3564.4 6.07C3564.68 6.53 3564.98 6.99 3565.26 7.49C3565.37 7.7 3565.48 7.95 3565.59 8.16L3515.91 7.75H3512.22V5.71ZM3512.22 9.48H3515.91L3566.45 9.89C3566.98 11.01 3567.51 12.28 3568.03 13.61L3515.91 13.2H3512.22V9.48ZM3512.22 14.88H3515.91L3568.7 15.29C3569.34 17.12 3569.98 19.11 3570.61 21.19L3515.94 20.84H3512.22V14.88ZM3512.22 22.62H3515.94L3571.14 22.98C3571.14 23.13 3571.25 23.28 3571.31 23.54C3571.97 25.93 3572.67 28.78 3573.31 31.54L3517.31 31.34H3512.24L3512.22 22.62ZM3512.22 33.06H3517.29L3573.75 33.26C3574.61 36.83 3575.44 40.26 3576.24 42.89H3512.24L3512.22 33.06ZM3512.22 44.57H3576.83C3576.99 44.92 3577.1 45.28 3577.24 45.64L3579.29 50.47H3512.22V44.57ZM3461 3.66L3511.3 3.41V4.07H3507.58L3460.34 4.44L3461 3.66ZM2539.14 176.26H2535.23C2537.23 175.76 2539.23 175.26 2541.3 174.72C2544.1 174 2546.9 173.29 2549.68 172.63L2558.02 170.63C2560.8 169.97 2563.57 169.36 2566.37 168.7C2569.17 168.04 2571.91 167.42 2574.69 166.81L2582.98 164.98C2584.98 164.52 2587.08 163.91 2589.08 163.3C2589.8 163.1 2590.55 162.84 2591.27 162.64L2608.27 157.64H2716L2702.58 162.17C2700.02 162.973 2697.42 163.64 2694.79 164.17L2694.32 164.27C2691.55 164.88 2688.8 165.54 2686.03 166.2L2677.71 168.2C2674.94 168.86 2672.14 169.57 2669.36 170.29C2666.58 171.01 2663.79 171.76 2660.99 172.53C2658.19 173.3 2655.39 174.06 2652.59 174.87C2652.15 175.02 2651.7 175.12 2651.26 175.28L2539.14 176.26ZM3099.48 12.88V12.76L3121.84 12.58C3119.84 13.24 3117.84 13.9 3115.84 14.58C3114.34 15.14 3112.84 15.75 3111.32 16.31L3066.04 16.67H3059.64C3062.5 15.82 3065.38 14.92 3068.21 14.07C3069.56 13.67 3070.9 13.36 3072.21 12.95L3085.21 12.85L3099.48 12.88ZM3075.39 18.44L3106.81 18.2L3105.65 18.65C3102.35 19.98 3098.94 21.46 3095.53 22.98C3095.03 23.19 3094.53 23.44 3094.06 23.65L3041.88 23.98H3039.07L3047.73 20.79C3049.81 20.03 3051.94 19.32 3054.1 18.6L3071.41 18.47L3075.39 18.44ZM3075.39 25.65V25.44L3090.26 25.35L3085.46 27.64C3082.22 29.22 3078.87 30.95 3075.54 32.73L3075.29 32.88L3046.74 32.98H3017.19L3017.59 32.8C3020.89 31.33 3024.24 29.9 3027.54 28.52C3029.82 27.52 3032.14 26.64 3034.47 25.72L3050.22 25.62L3075.39 25.65ZM3046.74 34.71L3072.18 34.62C3070.02 35.8 3067.83 36.97 3065.69 38.24C3062.61 39.9912 3059.38 41.4412 3056.02 42.57L3054.85 42.98H3002.1V42.08H2998C3001.22 40.46 3004.47 38.89 3007.72 37.32C3009.52 36.46 3011.35 35.64 3013.15 34.83L3044.69 34.72L3046.74 34.71ZM2969.74 50.55L2988.12 45.11L2989.87 44.65H3049.79L3032.35 50.55H2969.74ZM2963.74 50.7H2875.9L2901.43 43.77H2987.16L2963.74 50.7ZM2831.08 86.58H2743.58L2766.42 80.38H2863.72C2862.22 80.8778 2860.7 81.2787 2859.15 81.58C2856.21 82.04 2853.27 82.58 2850.36 83.05L2841.63 84.58C2838.72 85.09 2835.83 85.65 2832.92 86.21L2831.08 86.58ZM2666.19 68.24H2605.71L2644.14 60.62H2701.14L2666.19 68.24ZM2709.19 60.62H2766.97L2735.45 68.24H2674.21L2709.19 60.62ZM2658.42 69.94L2618.3 78.68H2553.08L2597.16 69.94H2658.42ZM2666.42 69.94H2728.42L2692.26 78.68H2626.26L2666.42 69.94ZM2735.66 69.94H2798.43L2766.23 78.68H2699.51L2735.66 69.94ZM2742.66 68.24L2774.18 60.62H2832.71L2804.65 68.24H2742.66ZM2781.21 58.92L2808.35 52.36H2863.14L2839 58.92H2781.21ZM2773.98 58.92H2716.98L2747.1 52.36H2801.1L2773.98 58.92ZM2708.98 58.92H2652.72L2685.81 52.36H2739.1L2708.98 58.92ZM2643.98 58.92H2588.47L2624.54 52.36H2677.07L2643.98 58.92ZM2635.4 60.62L2597 68.24H2537.27L2579.15 60.62H2635.4ZM2588.4 69.94L2544.32 78.68H2479.85L2527.85 69.94H2588.4ZM2535.74 80.38L2504.46 86.58H2436.46L2470.55 80.38H2535.74ZM2544.48 80.38H2610.48L2582 86.58H2513.19L2544.48 80.38ZM2618.48 80.38H2685.23L2659.57 86.58H2590L2618.48 80.38ZM2692.48 80.38H2759.97L2737.13 86.58H2666.82L2692.48 80.38ZM2772.72 78.68L2804.92 69.94H2898.7L2869.18 78.68H2772.72ZM2811.18 68.24L2839.24 60.62H2930.16L2904.4 68.24H2811.18ZM2845.51 58.92L2869.67 52.36H2958L2935.84 58.92H2845.51ZM2869.45 50.66H2815.45L2844.12 43.73H2895L2869.45 50.66ZM2808.19 50.66H2754.92L2786.74 43.73H2836.87L2808.19 50.66ZM2746.93 50.66H2694.42L2729.42 43.73H2778.79L2746.93 50.66ZM2685.67 50.66H2633.91L2672 43.73H2720.61L2685.67 50.66ZM2681.36 42.03L2721.8 34.67H2766.31L2729.21 42.03H2681.36ZM2671.86 42.03H2624.77L2668.55 34.67H2712.3L2671.86 42.03ZM2662.52 43.73L2624.41 50.66H2573.41L2614.66 43.73H2662.52ZM2615 52.36L2579 58.92H2524.25L2563.3 52.36H2615ZM2569.58 60.62L2527.7 68.24H2468.7L2514.04 60.62H2569.58ZM2518.35 69.94L2470.35 78.68H2406.64L2458.64 69.94H2518.35ZM2461 80.38L2426.91 86.58H2359.62L2396.53 80.38H2461ZM2417.56 88.28L2367.96 97.28H2295.8L2349.49 88.28H2417.56ZM2427.06 88.28H2495.88L2450.37 97.28H2377.46L2427.06 88.28ZM2504.63 88.28H2574.2L2532.78 97.28H2459.12L2504.63 88.28ZM2582.19 88.28H2652.52L2615.19 97.28H2540.77L2582.19 88.28ZM2659.75 88.28H2730.83L2697.6 97.28H2622.43L2659.75 88.28ZM2737.32 88.28H2822.68L2815.63 89.78C2812.77 90.39 2809.92 91.05 2807.06 91.78C2804.2 92.51 2801.35 93.16 2798.52 93.92C2795.69 94.68 2792.84 95.4 2790.01 96.21L2786.24 97.32H2704.09L2737.32 88.28ZM2792.8 97.28H2791.48C2793.82 96.72 2796.16 96.12 2798.48 95.46L2807.02 93.32L2815.59 91.32C2818.45 90.66 2821.33 90.05 2824.19 89.49C2826.02 89.14 2827.87 88.78 2829.73 88.37L2853.25 88.25H2866.4V88.18L2906.92 87.96C2905.21 88.37 2903.46 88.73 2901.74 89.14C2898.88 89.85 2896.03 90.56 2893.17 91.32C2890.31 92.08 2887.49 92.9 2884.66 93.72C2881.83 94.54 2879 95.44 2876.2 96.44C2876.12 96.49 2876.01 96.49 2875.93 96.54L2792.8 97.28ZM2865.85 86.56H2839.7C2840.32 86.42 2840.95 86.3 2841.58 86.19L2850.32 84.66C2853.23 84.15 2856.17 83.66 2859.11 83.19C2861.18 82.7727 2863.22 82.2113 2865.21 81.51C2866.12 81.2 2867.04 80.9 2867.98 80.64L2868.89 80.36H2901.79V80.28H2944.17C2941.67 81.0822 2939.11 81.7136 2936.52 82.17C2933.58 82.68 2930.67 83.17 2927.76 83.75C2924.85 84.33 2922 84.84 2919 85.44C2917.64 85.69 2916.31 86 2915 86.3L2865.85 86.56ZM2874.85 78.65L2904.19 69.95H2975L2949.35 78.65H2874.85ZM2909.9 68.22L2935.58 60.63H3002.48L2980 68.24L2909.9 68.22ZM2941.37 58.9L2963.59 52.34H3002.08V52.23H3027.3L3007.53 58.9H2941.37ZM3032.46 52.23H3096.51L3079.57 58.9H3012.69L3032.46 52.23ZM3037.46 50.49L3054.9 44.59H3115.74L3100.74 50.49H3037.46ZM3007.57 35.68C3004.3 37.2 3001.03 38.83 2997.76 40.46C2996.43 41.1116 2995.03 41.6307 2993.6 42.01H2907.6L2934.69 34.65H3009.78L3007.57 35.68ZM2901.2 42.03H2851.09L2881.53 34.67H2928.3L2901.2 42.03ZM2843.86 42.03H2794.5L2828.27 34.67H2874.27L2843.86 42.03ZM2786.51 42.03H2737.91L2775.01 34.67H2820.28L2786.51 42.03ZM2783.59 32.97L2820.69 25.61H2861.85L2828.09 32.97H2783.59ZM2774.85 32.97H2731.11L2771.55 25.61H2812L2774.85 32.97ZM2721.61 32.97H2678.61L2722.39 25.61H2762.04L2721.61 32.97ZM2668.36 32.97H2592L2638.11 25.61H2712.17L2668.36 32.97ZM2658.25 34.67L2614.48 42.03H2535.19L2581.31 34.67H2658.25ZM2604.36 43.73L2563.11 50.66H2481.11L2524.56 43.73H2604.36ZM2553 52.36L2514 58.92H2429.34L2470.47 52.36H2553ZM2503.84 60.62L2458.5 68.24H2370.87L2418.63 60.62H2503.84ZM2448.38 69.94L2396.38 78.68H2305.43L2360.22 69.94H2448.38ZM2386.26 80.38L2349.35 86.58H2255.88L2294.76 80.38H2386.26ZM2339.26 88.28L2285.57 97.28H2188.68L2245.25 88.28H2339.26ZM2275.45 99L2173.32 116.16H2070.42L2178 99H2275.45ZM2285.71 99H2358.64L2264.28 116.16H2183.57L2285.71 99ZM2368.13 99H2441.82L2355.25 116.16H2273.78L2368.13 99ZM2450.56 99H2525L2446.21 116.16H2364L2450.56 99ZM2532.99 99H2608.18L2537.18 116.16H2454.18L2532.99 99ZM2615.41 99H2691.35L2628.13 116.16H2544.41L2615.41 99ZM2697.84 99H2780.37C2777.94 99.75 2775.53 100.5 2773.12 101.29C2770.32 102.2 2767.49 103.17 2764.69 104.14C2761.89 105.11 2759.09 106.14 2756.28 107.14C2753.47 108.14 2750.71 109.28 2747.91 110.45C2745.11 111.62 2742.34 112.74 2739.57 113.97C2737.94 114.65 2736.35 115.42 2734.73 116.11H2634.59L2697.84 99ZM2738.65 116.16L2739.65 115.65C2742.42 114.423 2745.19 113.25 2747.96 112.13C2750.74 111.01 2753.54 109.89 2756.31 108.87C2759.08 107.85 2761.88 106.79 2764.68 105.82C2767.48 104.85 2770.29 103.88 2773.09 102.97C2775.89 102.06 2778.71 101.13 2781.51 100.32L2785.23 99.25L2870.85 98.43L2867.72 99.5C2864.86 100.57 2862.04 101.64 2859.32 102.76C2856.6 103.88 2853.72 105.1 2850.94 106.33C2848.16 107.56 2845.37 108.87 2842.6 110.2C2839.83 111.53 2836.94 113 2834.28 114.42C2833.37 114.88 2832.48 115.42 2831.56 115.95L2766.17 116.2L2738.65 116.16ZM2842.82 111.78C2845.6 110.45 2848.4 109.13 2851.17 107.91C2853.94 106.69 2856.74 105.46 2859.54 104.34C2862.34 103.22 2865.09 102.15 2867.94 101.08C2870.63 100.08 2873.35 99.15 2876.01 98.28L2962.49 97.47C2960.75 98.18 2958.97 98.89 2957.23 99.66C2954.43 100.93 2951.63 102.25 2948.94 103.58C2946.25 104.91 2943.39 106.48 2940.67 108.01C2937.95 109.54 2935.18 111.22 2932.44 113.01C2931.16 113.82 2929.91 114.64 2928.64 115.5L2834.81 115.86C2837.36 114.44 2840.08 113.1 2842.79 111.78H2842.82ZM2881.61 96.55C2882.69 96.19 2883.78 95.84 2884.86 95.55C2887.69 94.68 2890.51 93.92 2893.37 93.16C2896.23 92.4 2899.05 91.68 2901.91 90.97C2904.77 90.26 2907.62 89.59 2910.51 88.97C2912.03 88.61 2913.56 88.31 2915.08 87.97L2992.91 87.57C2992.19 87.77 2991.5 87.92 2990.78 88.08C2987.87 88.84 2985.04 89.6 2982.32 90.42C2979.6 91.24 2976.66 92.15 2973.92 93.12C2971.51 93.93 2969.12 94.8 2966.79 95.71L2881.61 96.55ZM2923.87 86.26L2927.87 85.5C2930.78 84.99 2933.69 84.43 2936.6 83.92C2939.6 83.398 2942.55 82.6492 2945.44 81.68L2949.44 80.36H3025.35L3025.02 80.51C3022.57 81.3696 3020.05 81.999 3017.48 82.39L3016.4 82.6C3013.51 83.11 3010.66 83.67 3007.8 84.23C3005.25 84.73 3002.73 85.29 3000.2 85.86L2923.87 86.26ZM2954.51 78.67L2980.16 69.97H3051.69L3029.69 78.67H2954.51ZM2985.2 68.24L3007.69 60.65H3075.29L3056 68.24H2985.2ZM3079.7 60.65H3148L3132 68.24H3060.4L3079.7 60.65ZM3084.02 58.92L3101.02 52.25H3165.79L3151.67 58.92H3084.02ZM3105.29 50.51L3120.24 44.61H3181.79L3169.34 50.51H3105.29ZM3124.56 42.93L3125.51 42.57C3127.8 41.531 3129.93 40.1853 3131.85 38.57C3132.96 37.75 3134.1 36.89 3135.21 36.12C3136.07 35.51 3136.96 34.95 3137.84 34.39L3197.84 34.19C3196.29 35.41 3194.73 36.68 3193.21 38.01C3190.81 39.9696 3188.19 41.6286 3185.39 42.95L3124.56 42.93ZM3134.85 34.44C3133.71 35.21 3132.55 36.07 3131.44 36.89C3129.54 38.4674 3127.47 39.8104 3125.25 40.89L3120.1 42.89H3059.59C3061.79 42.0009 3063.92 40.9618 3065.97 39.78C3069.08 38 3072.27 36.21 3075.43 34.53L3134.96 34.38C3134.96 34.38 3134.87 34.44 3134.85 34.44ZM3027.51 26.91C3024.19 28.28 3020.83 29.71 3017.51 31.18L3013.58 32.99H2941.03L2968.12 25.63H3030.62C3029.59 26.04 3028.54 26.44 3027.51 26.89V26.91ZM2934.51 32.99H2888.51L2919 25.61H2961.67L2934.51 32.99ZM2881.27 32.99H2836.02L2869.79 25.63H2911.71L2881.27 32.99ZM2877.6 23.93L2903 18.44H2941.64L2918.83 23.95L2877.6 23.93ZM2869.6 23.93H2829.21L2857.08 18.44H2895L2869.6 23.93ZM2820.47 23.93H2780.83L2811.2 18.44H2848.33L2820.47 23.93ZM2771.33 23.93H2732.46L2765.33 18.44H2801.7L2771.33 23.93ZM2722.2 23.93H2648.68L2683.31 18.44H2755.07L2722.2 23.93ZM2637.89 23.93H2600.31L2637.43 18.44H2672.51L2637.89 23.93ZM2627.23 25.63L2581.11 32.99H2539.43L2588.88 25.63H2627.23ZM2570.45 34.69L2524.34 42.05H2478.54L2528 34.69H2570.45ZM2513.68 43.75L2470.23 50.68H2420.52L2467.11 43.75H2513.68ZM2459.57 52.38L2418.44 58.94H2365L2409.11 52.38H2459.57ZM2407.78 60.64L2360.01 68.26H2302.33L2353.55 60.64H2407.78ZM2349.35 69.96L2294.56 78.7H2232.15L2291 69.94L2349.35 69.96ZM2284 80.38L2245.12 86.58H2179.12L2220.81 80.38H2284ZM2234.46 88.28L2177.9 97.28H2107L2167.66 88.28H2234.46ZM2167.2 99L2059.6 116.16H1980.18L2095.57 99H2167.2ZM2048.94 117.86L1936.53 135.79H1848.22L1968.75 117.86H2048.94ZM2059.73 117.86H2163.17L2056.48 135.79H1947.33L2059.73 117.86ZM2173.43 117.86H2254.91L2156.34 135.79H2066.73L2173.43 117.86ZM2264.43 117.86H2346.67L2256.24 135.79H2165.87L2264.43 117.86ZM2355.43 117.86H2438.43L2356.13 135.79H2265L2355.43 117.86ZM2446.43 117.86H2530.18L2456 135.79H2364.13L2446.43 117.86ZM2537.43 117.86H2621.93L2555.93 135.79H2463.3L2537.43 117.86ZM2628.43 117.86H2731.04C2728.36 119.1 2725.68 120.38 2723.04 121.71C2721.11 122.576 2719.1 123.246 2717.04 123.71L2714.82 124.32L2676.19 135.76H2562.28L2628.43 117.86ZM2681.93 135.76L2714.85 126.03L2717 125.44C2719.1 124.97 2721.15 124.272 2723.1 123.36C2725.88 121.98 2728.62 120.66 2731.4 119.36C2732.4 118.85 2733.5 118.45 2734.56 117.94L2754.02 117.86H2766.21L2828.5 117.62C2827.67 118.08 2826.83 118.54 2826.03 119L2825.03 119.56C2822.74 120.993 2820.31 122.202 2817.79 123.17L2780.47 135.8L2681.93 135.76ZM2817.99 124.86C2820.55 123.879 2823.01 122.654 2825.34 121.2L2826.34 120.64C2828.14 119.64 2829.97 118.64 2831.77 117.64L2926.24 117.23C2925.6 117.69 2924.97 118.1 2924.33 118.56L2924.13 118.71C2921.69 120.606 2919.04 122.214 2916.23 123.5L2884.98 135.82H2785.66L2817.99 124.86ZM2916.45 125.12C2919.3 123.802 2921.98 122.161 2924.45 120.23L2924.65 120.08C2926.04 119.08 2927.45 118.08 2928.86 117.17L3023.86 116.82C3022.28 118.19 3020.72 119.62 3019.2 121.04C3017.44 122.598 3015.41 123.809 3013.2 124.61C3012.53 124.91 3011.84 125.17 3011.2 125.47L2989.44 135.81H2889.32L2916.45 125.12ZM2931.59 115.44C2932.04 115.14 2932.48 114.88 2932.92 114.58C2935.64 112.85 2938.39 111.16 2941.1 109.64C2943.81 108.12 2946.57 106.64 2949.34 105.21C2952.11 103.78 2954.8 102.51 2957.6 101.29C2960.4 100.07 2963.15 98.89 2965.89 97.82C2966.2 97.72 2966.59 97.57 2966.97 97.41L3054.04 96.55C3053.4 96.85 3052.73 97.16 3052.1 97.55C3049.35 98.97 3046.55 100.55 3043.83 102.18C3041.11 103.81 3038.32 105.69 3035.63 107.58C3032.94 109.47 3030.08 111.65 3027.45 113.84C3026.95 114.25 3026.45 114.71 3025.98 115.12L2931.59 115.44ZM2971.74 95.73C2972.55 95.43 2973.35 95.17 2974.18 94.87C2976.93 93.95 2979.76 93.04 2982.56 92.22C2985.36 91.4 2988.1 90.64 2990.99 89.88C2993.88 89.12 2996.64 88.45 2999.47 87.88C2999.74 87.7108 3000.04 87.6079 3000.36 87.58L3078.94 87.17C3078.33 87.32 3077.72 87.52 3077.14 87.68C3074.25 88.54 3071.42 89.46 3068.73 90.43C3065.88 91.43 3063.08 92.52 3060.39 93.69C3059.47 94.09 3058.61 94.5 3057.73 94.91L2971.74 95.73ZM3008.62 85.73C3011.28 85.22 3013.92 84.73 3016.62 84.21L3017.7 84C3020.3 83.6144 3022.85 82.9678 3025.32 82.07L3029.87 80.28H3106.68V80.34C3105.41 80.9522 3104.06 81.4121 3102.68 81.71L3094 83.44C3090.9 84.1 3088.13 84.71 3085.49 85.38H3085.41L3008.62 85.73ZM3034.21 78.6L3056.21 69.95H3128.47L3111.34 78.04C3110.95 78.25 3110.56 78.4 3110.2 78.6H3034.21ZM3132.15 69.95H3205L3190.91 78.3C3190.71 78.4003 3190.51 78.5174 3190.33 78.65H3113.75L3132.15 69.95ZM3135.75 68.22L3151.81 60.63H3220.81L3207.97 68.22H3135.75ZM3155.44 58.9L3169.55 52.23H3234.99L3223.7 58.9H3155.44ZM3173 50.51L3183.9 45.37L3185.42 44.61H3247.7L3237.7 50.51H3173ZM3188.69 42.93C3190.4 41.957 3192.01 40.8325 3193.52 39.57C3195.71 37.68 3197.93 35.9 3200.14 34.17L3260.59 33.96C3260.06 34.52 3259.59 35.14 3259.04 35.7C3256.98 37.99 3254.85 40.38 3252.83 41.6L3250.58 42.93H3188.69ZM3202.33 32.49C3202.62 32.2893 3202.89 32.0652 3203.14 31.82C3206.38 29.38 3209.65 27.04 3212.9 24.9C3213.09 24.7687 3213.28 24.6485 3213.48 24.54L3270.93 24.19C3268.02 26.68 3265.11 29.38 3262.23 32.28L3202.33 32.49ZM3202.81 30.2C3201.81 30.91 3200.89 31.67 3199.95 32.44L3140.47 32.64C3141.94 31.72 3143.41 30.81 3144.88 29.94C3147.88 28.16 3150.88 26.48 3153.78 24.94L3210.78 24.58C3208.16 26.33 3205.5 28.21 3202.84 30.2H3202.81ZM3144.61 28.36C3142.25 29.79 3139.92 31.21 3137.61 32.69L3078.61 32.89C3080.97 31.67 3083.32 30.45 3085.61 29.33C3088.39 27.95 3091.21 26.63 3094.04 25.33L3150.44 24.92C3148.57 26.07 3146.6 27.19 3144.64 28.36H3144.61ZM3047.7 19.09C3044.31 20.32 3040.9 21.54 3037.55 22.86L3034.87 23.86H2974.38L2994.72 18.44H3049.72L3047.7 19.09ZM2967.89 23.91H2926L2948.8 18.4H2988.2L2967.89 23.91ZM2955.84 16.7L2971.66 12.88H3008.54L2994.46 16.7H2955.84ZM2948.6 16.7H2910.73L2928.28 12.88H2964.42L2948.6 16.7ZM2902.74 16.7H2865.62L2884.91 12.88H2920.29L2902.74 16.7ZM2856.88 16.7H2820.52L2841.52 12.88H2876.14L2856.88 16.7ZM2811.02 16.7H2775.41L2798.17 12.88H2832.04L2811.02 16.7ZM2765.15 16.7H2694L2718 12.88H2788L2765.15 16.7ZM2683.15 16.7H2648.84L2674.55 12.88H2707.12L2683.15 16.7ZM2637.29 16.7H2603.74L2631.18 12.88H2663L2637.29 16.7ZM2625.88 18.44L2588.81 23.95H2552L2591.56 18.44H2625.88ZM2577.38 25.65L2527.93 33.01H2487L2539.79 25.65H2577.38ZM2516.5 34.71L2467.05 42.07H2422.05L2474.83 34.71H2516.5ZM2455.62 43.77L2409 50.66H2360L2409.74 43.73L2455.62 43.77ZM2397.62 52.4L2353.52 58.96H2300.8L2347.88 52.4H2397.62ZM2342.09 60.66L2290.87 68.28H2233.95L2288.63 60.66H2342.09ZM2279.44 69.98L2220.69 78.72H2159L2221.72 69.98H2279.44ZM2209.26 80.42L2167.56 86.62H2102.3L2146.8 80.42H2209.26ZM2156.13 88.32L2095.47 97.32H2025.38L2090.13 88.32H2156.13ZM2084 99L1968.62 116.16H1890L2013.17 99H2084ZM1957.2 117.86L1836.67 135.79H1749.11L1877.78 117.86H1957.2ZM1825.2 137.49L1701.61 155.88H1605L1736.93 137.49H1825.2ZM1836.76 137.49H1925.84L1810.59 155.88H1713.2L1836.76 137.49ZM1936.64 137.49H2046.33L1937 155.88H1821.41L1936.64 137.49ZM2056.59 137.49H2147L2045.93 155.88H1947.21L2056.59 137.49ZM2156.46 137.49H2247.6L2154.87 155.88H2055.4L2156.46 137.49ZM2256.35 137.49H2348.24L2263.84 155.88H2163.65L2256.35 137.49ZM2356.23 137.49H2448.87L2372.81 155.88H2271.81L2356.23 137.49ZM2456.11 137.49H2549.5L2481.78 155.88H2380.08L2456.11 137.49ZM2555.99 137.49H2670.28L2608.19 155.88H2488.3L2555.99 137.49ZM2613.99 155.87L2676.08 137.49H2775.4L2721.08 155.87H2613.99ZM2780.55 137.49H2880.6L2834 155.87H2726.2L2780.55 137.49ZM2885.03 137.49H2985.77L2947 155.87H2838.5L2885.03 137.49ZM2989.51 137.49H3090.94L3059.94 155.87H2950.71L2989.51 137.49ZM2993.11 135.76L3011.39 127.1C3012.05 126.8 3012.72 126.49 3013.39 126.24C3015.67 125.41 3017.77 124.165 3019.6 122.57C3021.74 120.57 3023.9 118.65 3026.06 116.82L3121.45 116.41C3120.12 117.94 3118.79 119.52 3117.45 121.15C3115.98 122.952 3114.07 124.352 3111.91 125.22C3111.16 125.58 3110.44 125.93 3109.69 126.34L3093.83 135.76H2993.11ZM3028 115.09C3030.52 113 3033.13 111.01 3035.76 109.09C3038.39 107.17 3041.2 105.37 3043.94 103.69C3046.68 102.01 3049.41 100.48 3052.15 99.11C3053.93 98.19 3055.78 97.32 3057.64 96.46L3145.37 95.64C3144.04 96.46 3142.71 97.32 3141.37 98.24C3138.59 100.164 3135.92 102.237 3133.37 104.45C3130.65 106.75 3127.96 109.34 3125.37 112.04L3122.93 114.69L3028 115.09ZM3061.69 94.77C3063.99 93.77 3066.38 92.88 3068.79 92.02C3071.48 91.02 3074.28 90.13 3077.16 89.32C3079.82 88.55 3082.54 87.79 3085.45 87.08L3164.97 86.62C3162.42 87.48 3159.97 88.35 3157.68 89.32C3154.9 90.4831 3152.18 91.7915 3149.53 93.24C3149.14 93.44 3148.78 93.7 3148.39 93.9L3061.69 94.77ZM3093.08 85.29C3093.41 85.29 3093.72 85.14 3094.08 85.09C3096.93 84.48 3099.79 83.92 3102.64 83.41C3104.95 82.8472 3107.16 81.9547 3109.21 80.76C3109.55 80.61 3109.82 80.51 3110.13 80.36H3187.13C3185.66 81.1271 3184.11 81.7083 3182.5 82.09C3179.31 82.75 3176.65 83.36 3174.15 83.97C3172.93 84.28 3171.8 84.58 3170.66 84.89L3093.08 85.29ZM3182.61 83.77C3185.36 83.0206 3187.98 81.8717 3190.4 80.36H3268.04C3266.33 81.3275 3264.5 82.0608 3262.6 82.54C3260.16 83.16 3257.97 83.82 3255.92 84.48L3177.62 84.89C3179.21 84.53 3180.85 84.17 3182.65 83.77H3182.61ZM3193.31 78.67L3207.98 69.97H3281.6L3270.6 78.67H3193.31ZM3210.9 68.24L3223.74 60.65H3293.42L3283.8 68.24H3210.9ZM3226.65 58.92L3237.94 52.25H3304.07L3295.61 58.92H3226.65ZM3240.82 50.44L3250.82 44.54H3313.7V44.59C3313.43 44.79 3313.15 45.05 3312.87 45.25L3306.27 50.44H3240.82ZM3253.58 42.86C3255.81 41.1918 3257.82 39.2574 3259.58 37.1C3260.58 36.03 3261.58 34.91 3262.52 33.89L3323.4 33.69C3322.82 34.5 3322.24 35.27 3321.66 36.13C3319.96 38.6249 3317.94 40.8873 3315.66 42.86H3253.58ZM3264.31 32.21C3266.89 29.67 3269.49 27.2767 3272.1 25.03L3273.21 24.12L3331.13 23.76C3331.02 23.91 3330.88 24.01 3330.77 24.17C3328.72 26.56 3326.67 29.26 3324.64 32.01L3264.31 32.21ZM3275.31 22.38C3277.45 20.7 3279.58 19.07 3281.69 17.6C3282.11 17.2883 3282.54 16.9979 3282.99 16.73L3338.2 16.27C3336.34 18.06 3334.48 19.94 3332.65 22.03L3275.31 22.38ZM3273 22.44L3216.19 22.8C3218.41 21.37 3220.63 20.05 3222.84 18.8L3225.78 17.27L3280.35 16.81C3277.92 18.44 3275.45 20.44 3273 22.44ZM3213.33 22.85L3157.16 23.21C3159.68 21.88 3162.16 20.61 3164.7 19.39C3166 18.83 3167.28 18.27 3168.55 17.66L3222.48 17.25C3219.44 18.94 3216.39 20.83 3213.34 22.81L3213.33 22.85ZM3164.48 17.76C3161.15 19.34 3157.8 21.02 3154.48 22.76L3153.64 23.22L3097.99 23.58C3100.63 22.4 3103.26 21.28 3105.81 20.27C3107.67 19.5 3109.53 18.84 3111.42 18.13L3164.6 17.67C3164.57 17.67 3164.54 17.72 3164.49 17.72L3164.48 17.76ZM3058 15.63L3054.78 16.7H3001L3015.08 12.88H3066.95C3064 13.76 3061 14.66 3058 15.63ZM3072.95 11.18H3021.37L3030.82 8.61H3082.74C3081.4 8.94 3080.06 9.27 3078.74 9.61C3076.77 10.13 3074.84 10.64 3072.91 11.18H3072.95ZM3014.88 11.18H2978.76L2989.38 8.61H3024.33L3014.88 11.18ZM2971.52 11.18H2936.16L2947.94 8.61H2982.14L2971.52 11.18ZM2928.17 11.18H2893.55L2906.5 8.61H2939.95L2928.17 11.18ZM2884.81 11.18H2850.95L2865 8.61H2897.7L2884.81 11.18ZM2841.45 11.18H2808.35L2823.63 8.61H2855.56L2841.45 11.18ZM2798.09 11.18H2728.6L2744.69 8.61H2813.33L2798.09 11.18ZM2717.84 11.18H2686L2703.25 8.61H2733.89L2717.84 11.18ZM2674.48 11.18H2643.48L2661.9 8.61H2691.78L2674.48 11.18ZM2631.12 11.18H2600.8L2620.38 8.61H2649.5L2631.12 11.18ZM2618.92 12.88L2591.48 16.7H2558.7L2587.87 12.88H2618.92ZM2579.24 18.44L2539.68 23.95H2503.62L2545.69 18.44H2579.24ZM2527.48 25.65L2474.69 33.01H2434.52L2490.65 25.65H2527.48ZM2462.48 34.71L2409.69 42.07H2365.42L2421.54 34.71H2462.48ZM2397.48 43.77L2347.74 50.7H2299.56L2352.44 43.77H2397.48ZM2335.54 52.4L2288.46 58.96H2236.53L2286.59 52.4H2335.54ZM2276.26 60.66L2221.59 68.28H2165.43L2223.56 60.66H2276.26ZM2209.4 69.94L2146.69 78.68H2085.8L2152.48 69.94H2209.4ZM2134.49 80.38L2090 86.58H2025.53L2072.85 80.38H2134.49ZM2077.78 88.28L2013.03 97.28H1943.7L2012.54 88.28H2077.78ZM2000.78 99L1877.61 116.16H1799.72L1930.72 99H2000.78ZM1865.41 117.86L1736.8 135.79H1650L1786.79 117.86H1865.41ZM1724.6 137.49L1592.67 155.88H1496.77L1637 137.49H1724.6ZM1580.47 157.57L1446.38 176.26H1341.24L1483.81 157.57H1580.47ZM1592.79 157.57H1690.22L1564.6 176.26H1458.7L1592.79 157.57ZM1701.79 157.57H1800L1682.86 176.26H1576.15L1701.79 157.57ZM1810.79 157.57H1926.88L1815.68 176.26H1693.68L1810.79 157.57ZM1937.13 157.57H2036.62L1933.9 176.26H1825.9L1937.13 157.57ZM2046.13 157.57H2146.37L2052.12 176.26H1943.36L2046.13 157.57ZM2155.13 157.57H2256.13L2170.36 176.26H2060.83L2155.13 157.57ZM2264.13 157.57H2365.89L2288.58 176.26H2178.29L2264.13 157.57ZM2373.13 157.57H2475.63L2406.8 176.26H2295.8L2373.13 157.57ZM2482.13 157.57H2602.57L2591.28 160.92C2590.53 161.12 2589.81 161.37 2589.06 161.58C2587.06 162.19 2585.06 162.8 2583.06 163.26L2574.77 165.09C2572 165.7 2569.22 166.31 2566.45 166.98C2563.68 167.65 2560.91 168.25 2558.11 168.91L2549.73 170.91C2546.93 171.57 2544.16 172.28 2541.36 173C2538.56 173.72 2535.76 174.42 2532.96 175.19C2531.62 175.56 2530.26 175.9 2528.96 176.27H2413.21L2482.13 157.57ZM2661.24 174.21C2664.04 173.44 2666.81 172.73 2669.61 172.02C2672.41 171.31 2675.19 170.59 2677.96 169.93L2686.28 167.93C2689.05 167.27 2691.82 166.66 2694.57 166L2695.04 165.9C2697.7 165.365 2700.32 164.667 2702.89 163.81L2721.27 157.6H2829.8L2818.98 161.87C2816.33 162.86 2813.62 163.662 2810.86 164.27C2808.14 164.93 2805.39 165.54 2802.68 166.27C2799.97 167 2797.22 167.65 2794.47 168.36C2791.72 169.07 2788.98 169.84 2786.24 170.6C2783.5 171.36 2780.72 172.18 2777.94 173.05C2776.75 173.4 2775.56 173.81 2774.37 174.22L2657.63 175.22C2658.74 174.87 2660 174.51 2661.15 174.21H2661.24ZM2786.35 172.21C2789.09 171.45 2791.84 170.68 2794.58 169.97C2797.32 169.26 2800.04 168.55 2802.79 167.88L2810.97 165.88C2813.76 165.264 2816.5 164.462 2819.18 163.48L2834.18 157.53H2943.43L2938.66 159.77C2937.97 160.07 2937.3 160.43 2936.61 160.77C2934.71 161.815 2932.69 162.65 2930.61 163.26C2927.9 163.92 2925.21 164.58 2922.49 165.26C2919.77 165.94 2917.05 166.68 2914.31 167.45C2911.57 168.22 2908.74 169.08 2906.1 169.89C2903.16 170.81 2900.47 171.73 2897.84 172.69C2897.62 172.79 2897.4 172.85 2897.17 172.95L2779.97 173.95C2782 173.44 2784.12 172.83 2786.26 172.22L2786.35 172.21ZM2906.27 171.8C2908.9 170.99 2911.65 170.17 2914.45 169.36C2917.25 168.55 2919.88 167.88 2922.6 167.17C2925.32 166.46 2928.03 165.8 2930.72 165.17C2932.85 164.556 2934.91 163.704 2936.85 162.63C2937.52 162.27 2938.21 161.96 2938.85 161.63L2947.11 157.71H3056.99L3054.77 159.03C3054.03 159.49 3053.3 159.95 3052.56 160.46C3050.85 161.714 3048.96 162.708 3046.96 163.41C3044.32 164.12 3041.69 164.79 3039.03 165.55C3036.11 166.36 3033.51 167.18 3031.03 167.99C3028.17 168.99 3025.54 169.88 3023.03 170.9C3022.03 171.3 3021.09 171.71 3020.15 172.12L2902.25 173.19C2903.46 172.68 2904.79 172.27 2906.18 171.81L2906.27 171.8ZM3031.27 169.56C3033.71 168.75 3036.27 167.98 3039.22 167.17C3041.86 166.41 3044.52 165.74 3047.15 165.03C3049.22 164.326 3051.18 163.315 3052.95 162.03C3053.67 161.57 3054.42 161.03 3055.14 160.65L3060.19 157.65H3170.79C3170.01 158.26 3169.27 158.97 3168.49 159.65C3166.8 161.18 3165.02 162.76 3163.33 163.27C3160.92 163.98 3158.33 164.75 3155.71 165.61C3152.85 166.61 3150.36 167.5 3148.03 168.51C3146.28 169.28 3144.67 170.09 3143.09 170.96L3024.53 171.96C3026.54 171.15 3028.76 170.34 3031.15 169.57L3031.27 169.56ZM3063.04 155.86L3094.04 137.48H3196.1L3172.81 155.86H3063.04ZM3096.95 135.75L3110.07 127.96C3110.79 127.55 3111.51 127.2 3112.23 126.84C3114.52 125.922 3116.53 124.431 3118.08 122.51C3119.8 120.37 3121.57 118.33 3123.35 116.35L3219.12 116.04C3218.04 117.77 3216.93 119.56 3215.88 121.44C3214.76 123.585 3212.96 125.303 3210.77 126.33C3209.96 126.758 3209.18 127.253 3208.45 127.81L3198.35 135.75H3096.95ZM3124.95 114.67C3125.31 114.26 3125.67 113.85 3126.03 113.5C3128.54 110.853 3131.19 108.337 3133.96 105.96C3136.54 103.77 3139.23 101.68 3141.96 99.8C3144.15 98.27 3146.45 96.9 3148.72 95.57L3237.2 94.76C3235.11 96.4251 3233.14 98.2292 3231.3 100.16C3228.52 103.066 3225.94 106.16 3223.59 109.42C3222.48 110.95 3221.37 112.63 3220.26 114.31L3124.95 114.67ZM3151.95 93.89C3153.95 92.89 3155.95 91.89 3158.05 91.04C3160.66 89.92 3163.32 88.95 3166.2 88.04C3167.75 87.54 3169.31 87.04 3170.94 86.62L3251.49 86.16C3249.91 86.82 3248.36 87.54 3246.89 88.3C3244.25 89.6705 3241.73 91.2558 3239.35 93.04L3151.95 93.89ZM3247.14 89.89C3249.66 88.5795 3252.27 87.4565 3254.96 86.53C3255.37 86.38 3255.79 86.22 3256.18 86.12L3337.97 85.66C3335.43 87.1694 3333.1 89.0014 3331.04 91.11C3330.74 91.42 3330.46 91.77 3330.15 92.11L3242.04 92.97C3243.63 91.8622 3245.29 90.8472 3247 89.93L3247.14 89.89ZM3262.14 84.34C3262.42 84.34 3262.67 84.19 3262.92 84.13C3265.83 83.4329 3268.56 82.1126 3270.92 80.26H3349.08V80.32C3347.95 81.2528 3346.66 81.9743 3345.28 82.45C3343.84 82.91 3342.54 83.45 3341.28 83.93L3262.14 84.34ZM3273.14 78.58L3284.14 69.88H3358.42L3352.35 77.06C3351.91 77.5731 3351.45 78.0638 3350.96 78.53L3273.14 78.58ZM3286.31 68.2L3295.93 60.61H3366.3L3359.87 68.2H3286.31ZM3298.12 58.88L3306.58 52.21H3373.4L3367.74 58.88H3298.12ZM3308.74 50.47L3313.37 46.81C3314.23 46.15 3315.15 45.38 3316.06 44.57H3379.81L3374.81 50.47H3308.74ZM3317.89 42.89C3319.55 41.2347 3321.06 39.4267 3322.38 37.49C3323.3 36.16 3324.21 34.94 3325.1 33.72L3386.74 33.47C3385.44 36.47 3384.13 39.47 3382.86 40.95L3381.25 42.89H3317.89ZM3326.35 31.89C3328.04 29.65 3329.73 27.46 3331.42 25.47C3332 24.86 3332.56 24.3 3333.11 23.64L3391.42 23.23C3391.26 23.54 3391.09 23.79 3390.9 24.15C3389.63 26.6008 3388.48 29.114 3387.46 31.68L3326.35 31.89ZM3334.67 21.89C3336.58 19.89 3338.49 17.89 3340.41 16.13L3396.14 15.72C3394.89 17.51 3393.64 19.44 3392.42 21.53L3334.67 21.89ZM3342.46 14.45C3344.07 13.08 3345.67 11.85 3347.28 10.68L3400.38 10.28C3400.02 10.68 3399.66 11.04 3399.38 11.45C3398.71 12.26 3398.07 13.13 3397.38 13.99L3342.46 14.45ZM3340.27 14.45C3340.27 14.45 3340.21 14.45 3340.18 14.55L3285.84 14.96C3287.78 13.74 3289.75 12.52 3291.72 11.45C3291.88 11.3533 3292.04 11.2665 3292.21 11.19L3344.68 10.78C3343 12.02 3341.53 13.19 3340.09 14.51L3340.27 14.45ZM3283.04 14.96L3229.27 15.37C3230.55 14.71 3231.82 14.09 3233.07 13.48C3234.32 12.87 3235.84 12.21 3237.26 11.6L3289.03 11.19C3286.85 12.44 3284.85 13.7 3282.86 15.02L3283.04 14.96ZM3232.85 11.85C3230.52 12.97 3228.19 14.15 3225.85 15.42L3172.75 15.83C3173.5 15.52 3174.27 15.16 3175.02 14.83C3177.43 13.83 3179.87 12.89 3182.34 12.03L3233.34 11.62C3233 11.76 3232.81 11.86 3232.67 11.91L3232.85 11.85ZM3174.79 13.23C3172.74 14.04 3170.68 14.96 3168.61 15.88L3116.14 16.28C3116.15 16.2879 3116.17 16.2921 3116.19 16.2921C3116.2 16.2921 3116.22 16.2879 3116.23 16.28C3119.67 15.06 3123.13 13.84 3126.54 12.77C3126.79 12.72 3127.04 12.62 3127.32 12.57L3177.62 12.16C3176.49 12.52 3175.55 12.88 3174.61 13.29L3174.79 13.23ZM3127.24 10.78L3087.82 11.12H3079C3082.32 10.23 3085.63 9.44 3088.86 8.7L3135.16 8.39C3132.49 9.21 3129.77 10.03 3127.06 10.84L3127.24 10.78ZM3037.24 6.85L3042.49 5.44H3096.87C3094.56 5.91 3092.24 6.44 3089.94 6.92L3037.24 6.85ZM3030.75 6.85H2996.57L3002.49 5.44H3036L3030.75 6.85ZM2989.34 6.85H2955.7L2962.49 5.44H2995.26L2989.34 6.85ZM2947.91 6.85H2915L2922.5 5.44H2954.5L2947.91 6.85ZM2906.49 6.85H2874.57L2882.5 5.44H2913.75L2906.49 6.85ZM2865.07 6.85H2833.7L2842.51 5.44H2873L2865.07 6.85ZM2823.64 6.85H2755.54L2764.62 5.44H2832.25L2823.64 6.85ZM2744.75 6.85H2714.88L2724.88 5.37H2754.08L2744.75 6.85ZM2703.33 6.85H2674L2684.63 5.44H2713.07L2703.33 6.85ZM2661.9 6.85H2633.55L2644.64 5.44H2672.32L2661.9 6.85ZM2620.47 6.85H2592.89L2604.89 5.37H2631.8L2620.47 6.85ZM2607.47 8.55L2587.89 11.12H2558.38L2579 8.61L2607.47 8.55ZM2574.92 12.82L2545.75 16.64H2513.75L2544.65 12.82H2574.92ZM2532.61 18.44L2490.54 23.95H2455.25L2499.82 18.44H2532.61ZM2477.61 25.65L2421.48 33.01H2382.09L2441.55 25.65H2477.61ZM2408.51 34.71L2352.39 42.07H2308.89L2368.34 34.71H2408.51ZM2339.42 43.77L2286.54 50.7H2239.12L2295.12 43.77H2339.42ZM2273.57 52.4L2223.51 58.96H2172.35L2225.35 52.4H2273.57ZM2210.57 60.66L2152.44 68.28H2097L2158.59 60.66H2210.57ZM2139.47 69.98L2072.79 78.72H2012.6L2083.24 69.98H2139.47ZM2059.82 80.42L2012.5 86.62H1948.79L1998.92 80.42H2059.82ZM1999.53 88.32L1930.69 97.32H1862.12L1935.05 88.32H1999.53ZM1917.71 99.04L1786.71 116.2H1709.59L1848.33 99.04H1917.71ZM1773.79 117.9L1637 135.83H1551L1695.92 117.9H1773.79ZM1624 137.49L1483.73 155.88H1388.6L1537.2 137.49H1624ZM1470.77 157.57L1328.2 176.26H1223.79L1374.79 157.57H1470.77ZM1315.23 177.96L826.1 242.06H691.89L1210.05 177.96H1315.23ZM1328.32 177.96H1434.23L974.23 242.06H839.23L1328.32 177.96ZM1446.54 177.96H1553.21L1122.21 242.06H986.47L1446.54 177.96ZM1564.77 177.96H1672.2L1270.31 242.06H1133.81L1564.77 177.96ZM1683 177.96H1805.58L1424.1 242.06H1281.1L1683 177.96ZM1815.83 177.96H1924.56L1572.16 242.06H1434.36L1815.83 177.96ZM1934.06 177.96H2043.55L1720.21 242.06H1581.61L1934.06 177.96ZM2052.29 177.96H2162.53L1868.26 242.06H1728.91L2052.29 177.96ZM2170.53 177.96H2281.53L2016.33 242.06H1876.21L2170.53 177.96ZM2288.76 177.96H2400.5L2164.37 242.06H2023.51L2288.76 177.96ZM2406.99 177.96H2522.63C2520.4 178.58 2518.16 179.22 2515.92 179.86C2513.1 180.68 2510.27 181.49 2507.41 182.36C2504.55 183.23 2501.73 184.09 2498.87 185L2490.3 187.75C2487.45 188.75 2484.56 189.64 2481.68 190.66C2478.8 191.68 2475.91 192.66 2473.03 193.71C2470.15 194.76 2467.24 195.8 2464.32 196.87C2461.4 197.94 2458.5 199.06 2455.59 200.18C2452.68 201.3 2449.74 202.47 2446.8 203.64C2444.83 204.41 2442.81 205.042 2440.75 205.53L2437.98 206.29L2317.2 242.06H2170.81L2406.99 177.96ZM2323.16 242.04L2433.16 209.45H2562.8L2466.59 242.04H2323.16ZM2438.92 207.77C2439.59 207.56 2440.2 207.41 2440.84 207.26C2442.91 206.743 2444.94 206.112 2446.94 205.37C2449.88 204.2 2452.79 203.03 2455.73 201.91C2458.67 200.79 2461.55 199.67 2464.46 198.6C2467.37 197.53 2470.26 196.46 2473.14 195.44L2481.79 192.39L2490.39 189.49C2493.24 188.523 2496.1 187.607 2498.96 186.74C2501.81 185.82 2504.64 184.95 2507.5 184.09C2510.36 183.23 2513.18 182.41 2515.98 181.59C2518.78 180.77 2521.64 179.96 2524.44 179.2L2528.44 178.13L2547.88 177.96H2566.77V177.8L2645.42 177.11C2645 177.257 2644.57 177.377 2644.14 177.47C2641.32 178.33 2638.49 179.247 2635.66 180.22C2632.83 181.22 2629.98 182.15 2627.15 183.17C2624.32 184.19 2621.44 185.26 2618.58 186.33C2615.72 187.4 2612.84 188.57 2609.98 189.74C2607.12 190.91 2604.22 192.13 2601.33 193.41C2598.44 194.69 2595.54 196 2592.63 197.41C2589.72 198.82 2586.8 200.21 2583.87 201.64C2581.03 203.072 2578.1 204.311 2575.1 205.35L2567.84 207.8L2438.92 207.77ZM2575.26 206.95C2578.29 205.894 2581.25 204.635 2584.11 203.18C2587.02 201.71 2589.93 200.33 2592.84 198.96C2595.75 197.59 2598.64 196.26 2601.52 194.96C2604.4 193.66 2607.29 192.46 2610.17 191.29C2613.05 190.12 2615.91 188.95 2618.77 187.88C2621.63 186.81 2624.48 185.74 2627.31 184.72C2630.14 183.7 2632.99 182.72 2635.82 181.77C2638.65 180.82 2641.48 179.93 2644.28 179.02L2651.28 176.88L2768.95 175.88C2766.35 176.8 2763.74 177.71 2761.16 178.68C2758.31 179.75 2755.48 180.92 2752.76 182.04C2750.04 183.16 2747.08 184.49 2744.3 185.81C2741.52 187.13 2738.56 188.56 2735.79 189.99C2733.02 191.42 2730.05 192.99 2727.22 194.62C2724.39 196.25 2721.43 198.03 2718.6 199.81C2718.05 200.17 2717.46 200.53 2716.91 200.88C2714.73 202.397 2712.41 203.693 2709.98 204.75L2702.63 207.66H2572.92L2575.26 206.95ZM2710.32 206.6C2712.77 205.514 2715.12 204.199 2717.32 202.67C2717.87 202.32 2718.42 201.96 2719.01 201.61C2721.81 199.82 2724.72 198.09 2727.6 196.46C2730.48 194.83 2733.29 193.3 2736.14 191.83C2738.99 190.36 2741.74 188.98 2744.63 187.65C2747.52 186.32 2750.23 185.11 2753.06 183.88C2755.89 182.65 2758.6 181.59 2761.43 180.52C2764.26 179.45 2766.98 178.52 2769.78 177.52C2771.25 176.91 2772.78 176.4 2774.35 175.89L2892.55 174.82C2891.55 175.23 2890.47 175.63 2889.48 176.09C2886.62 177.31 2883.82 178.59 2881.13 179.91C2878.27 181.29 2875.45 182.81 2872.73 184.39C2870.01 185.97 2867.04 187.75 2864.27 189.59C2861.5 191.43 2858.53 193.51 2855.73 195.65C2852.93 197.79 2849.94 200.23 2847.14 202.65C2845.22 204.229 2843.04 205.47 2840.7 206.32C2839.98 206.63 2839.29 206.93 2838.57 207.32L2837.57 207.83H2707.17L2710.32 206.6ZM2847.55 204.2C2850.35 201.76 2853.23 199.42 2856.11 197.2C2858.99 194.98 2861.74 193.07 2864.6 191.2C2867.46 189.33 2870.2 187.63 2873.03 186C2875.86 184.37 2878.57 182.95 2881.4 181.57C2884.06 180.25 2886.86 178.97 2889.72 177.75C2892.13 176.75 2894.72 175.75 2897.23 174.75L3016.23 173.68C3015.76 173.876 3015.29 174.096 3014.84 174.34C3012.07 175.72 3009.32 177.24 3006.69 178.87C3003.86 180.628 3001.11 182.534 2998.48 184.58C2995.6 186.8 2992.83 189.163 2990.19 191.66C2987.36 194.3 2984.54 197.26 2981.82 200.31C2979.44 202.979 2976.62 205.233 2973.5 206.98L2972.34 207.7H2841.43C2843.63 206.872 2845.69 205.69 2847.51 204.2H2847.55ZM2982.36 201.86C2985.08 198.8 2987.85 195.86 2990.68 193.25C2993.3 190.78 2996.05 188.443 2998.91 186.25C3001.57 184.25 3004.32 182.33 3007.06 180.59C3009.8 178.85 3012.41 177.44 3015.16 176.06C3016.82 175.25 3018.49 174.48 3020.23 173.72L3140 172.63C3137.31 174.274 3134.76 176.13 3132.37 178.18C3129.52 180.597 3126.87 183.236 3124.44 186.07C3121.54 189.441 3118.87 192.998 3116.44 196.72C3113.75 200.79 3111.11 204.66 3108.44 206.72L3107.17 207.72H2975.33C2977.93 206.113 2980.28 204.14 2982.32 201.86H2982.36ZM3117 198.04C3119.4 194.36 3122.04 190.839 3124.9 187.5C3127.3 184.707 3129.92 182.102 3132.72 179.71C3135.16 177.659 3137.75 175.787 3140.46 174.11C3141.32 173.6 3142.23 173.11 3143.12 172.58L3263.79 171.51C3263.46 171.81 3263.1 172.07 3262.79 172.37C3260.09 175.001 3257.71 177.941 3255.7 181.13C3252.9 185.58 3250.5 190.264 3248.51 195.13C3245.94 201.19 3243.83 205.26 3241.92 207.76H3109.45C3112 205.44 3114.46 201.88 3117 198.04ZM3146.56 170.85C3147.09 170.64 3147.56 170.39 3148.14 170.13C3150.44 169.13 3152.94 168.13 3155.76 167.23C3158.37 166.37 3160.95 165.6 3163.36 164.89C3165.19 164.38 3167.02 162.7 3168.77 161.12C3169.52 160.46 3170.29 159.74 3171.04 159.12L3173.04 157.55H3284.31L3283.31 158.72C3280.9 161.57 3278.71 163.35 3276.69 164.06C3274.31 164.918 3272 165.958 3269.78 167.17C3268.41 167.933 3267.1 168.802 3265.87 169.77L3146.56 170.85ZM3270.03 168.85C3272.22 167.69 3274.49 166.687 3276.82 165.85C3278.99 165.03 3281.26 163.2 3283.82 160.24L3286.01 157.65H3397.89C3396.73 160.5 3395.54 163.15 3394.43 163.76C3392.44 164.747 3390.69 166.173 3389.33 167.93C3389.13 168.19 3388.94 168.49 3388.72 168.8L3268.6 169.87C3269.08 169.44 3269.52 169.17 3270 168.86L3270.03 168.85ZM3285.72 155.85H3175.16L3198.45 137.47H3301.24L3285.72 155.85ZM3200.63 135.79L3208.72 129.38C3209.44 128.861 3210.19 128.384 3210.97 127.95C3213.3 126.803 3215.21 124.948 3216.43 122.65C3217.74 120.31 3219.09 118.12 3220.43 115.98L3316.43 115.63C3314.26 120.77 3312.24 124.44 3310.27 126.78L3302.67 135.78L3200.63 135.79ZM3221.63 114.3C3222.43 113.13 3223.21 111.91 3224.01 110.79C3226.33 107.565 3228.87 104.502 3231.61 101.62C3233.99 99.1614 3236.55 96.8819 3239.26 94.8C3239.35 94.8 3239.37 94.8 3239.43 94.7L3328.55 93.83C3326.85 95.9027 3325.3 98.0987 3323.92 100.4C3321.35 104.721 3319.11 109.23 3317.23 113.89L3221.63 114.3ZM3324.53 101.72C3326.19 98.9281 3328.12 96.3027 3330.29 93.88L3419.99 92.96C3419.6 93.88 3419.24 94.85 3418.86 95.87C3416.94 101.647 3415.41 107.551 3414.31 113.54L3318.4 113.95C3320.13 109.741 3322.17 105.661 3324.48 101.74L3324.53 101.72ZM3331.98 92.1C3333.87 90.215 3335.99 88.5724 3338.28 87.21C3339.27 86.6384 3340.3 86.1275 3341.36 85.68L3424.62 85.22C3424.46 85.43 3424.26 85.58 3424.1 85.78C3422.79 87.4613 3421.68 89.2905 3420.8 91.23L3331.98 92.1ZM3345.82 84C3347.77 83.1796 3349.53 81.968 3351 80.44H3430.49C3430.23 81.0122 3429.82 81.5029 3429.3 81.86C3428.27 82.3362 3427.3 82.9158 3426.39 83.59L3345.82 84ZM3352.67 78.65C3352.67 78.65 3352.67 78.65 3352.73 78.65L3360.02 70.05H3434.86L3434.44 71.05C3433.97 72.17 3433.44 73.44 3433 74.71C3432.56 75.98 3431.94 77.46 3431.42 78.71L3352.67 78.65ZM3361.46 68.22L3367.89 60.63H3438.82L3435.6 68.22H3361.46ZM3369.33 58.9L3374.99 52.23H3442.37L3439.54 58.9H3369.33ZM3376.43 50.49L3381.43 44.59H3445.59L3443.1 50.49H3376.43ZM3382.84 42.91L3383.25 42.4C3384.78 40.56 3386.25 37.15 3387.8 33.49L3448.8 33.28C3447.94 36.85 3447.08 40.36 3446.22 42.91H3382.84ZM3388.52 31.75C3389.38 29.5988 3390.35 27.4927 3391.43 25.44L3392.65 23.35L3451.35 22.94C3450.63 25.54 3449.88 28.6 3449.19 31.55L3388.52 31.75ZM3393.68 21.62C3394.95 19.53 3396.23 17.62 3397.53 15.81L3453.76 15.36C3453.13 17.19 3452.49 19.13 3451.88 21.21L3393.68 21.62ZM3398.84 14.08L3399.7 12.96C3400.47 12.05 3401.25 11.18 3402.02 10.32L3455.84 9.91C3455.35 11.08 3454.84 12.3 3454.35 13.63L3398.84 14.08ZM3403.74 8.58C3404.55 7.82 3405.38 7.11 3406.18 6.44L3457.73 6.14C3457.7 6.19455 3457.66 6.24497 3457.62 6.29C3457.31 6.85 3456.98 7.57 3456.68 8.18L3403.74 8.58ZM3401.8 8.63L3349.62 9.04C3349.73 8.94 3349.87 8.89 3349.98 8.79C3351.12 8.07 3352.25 7.46 3353.39 6.85L3403.97 6.5C3403.19 7.18 3402.47 7.89 3401.75 8.65L3401.8 8.63ZM3349.6 7.23C3348.68 7.79 3347.8 8.5 3346.88 9.11L3295.42 9.52C3297.08 8.71 3298.75 7.94 3300.42 7.28L3350.16 6.92C3350 7.03 3349.76 7.13 3349.6 7.23ZM3301.27 5.14C3300.95 5.29905 3300.61 5.43603 3300.27 5.55L3253 5.9C3253.11 5.9 3253.22 5.9 3253.36 5.8C3254.64 5.4 3255.91 5.09 3257.19 4.8L3302.91 4.55C3302.38 4.73 3301.82 4.89 3301.27 5.14ZM3296.27 7.28C3294.8 7.99 3293.33 8.76 3291.86 9.52L3241.25 9.93C3241.84 9.67 3242.45 9.42 3243.03 9.21C3244.5 8.65 3245.97 8.15 3247.46 7.64L3296.27 7.28ZM3247.38 5.9L3201.08 6.21C3202.63 5.8 3204.18 5.45 3205.73 5.09C3205.88 5.09651 3206.03 5.07965 3206.18 5.04L3250.9 4.78C3249.78 5.14 3248.59 5.5 3247.42 5.9H3247.38ZM3242.53 7.69C3240.67 8.4 3238.79 9.16 3236.93 9.98L3187.07 10.39C3189.6 9.52 3192.07 8.76 3194.59 8.04L3242.53 7.69ZM3195.14 6.11C3194.92 6.11 3194.73 6.26 3194.5 6.31L3149.11 6.62C3151.17 6.16 3153.22 5.75 3155.3 5.34L3199 5.09C3197.68 5.44 3196.43 5.75 3195.18 6.11H3195.14ZM3188.82 8.04C3187.49 8.5 3186.13 8.91 3184.82 9.37C3183.88 9.67 3182.96 10.03 3182.02 10.37L3132.89 10.77C3134.19 10.42 3135.49 10.01 3136.77 9.65C3138.4 9.25 3140.04 8.79 3141.7 8.38L3188.82 8.04ZM3141.63 6.67L3099.44 6.96H3097.5L3099.7 6.51C3101.23 6.21 3102.78 5.95 3104.31 5.65L3147 5.34C3145.22 5.75 3143.44 6.21 3141.67 6.67H3141.63ZM3105.89 3.73H3048.72L3055.56 1.87H3117.74C3115.29 2.2 3112.86 2.55 3110.46 2.95C3109 3.19 3107.46 3.44 3105.93 3.73H3105.89ZM3042.23 3.73H3009.49L3017.17 1.87H3049.07L3042.23 3.73ZM3002.23 3.73H2970.23L2978.76 1.87H3010L3002.23 3.73ZM2962.23 3.73H2930.99L2940.37 1.87H2970.76L2962.23 3.73ZM2922.23 3.73H2891.75L2901.96 1.87H2931.6L2922.23 3.73ZM2882.23 3.73H2852.51L2863.51 1.87H2892.39L2882.23 3.73ZM2842.23 3.73H2775.14L2786.79 1.87H2853.28L2842.23 3.73ZM2764.35 3.73H2735.92L2748.41 1.87H2776L2764.35 3.73ZM2724.35 3.73H2696.69L2710.02 1.87H2737L2724.35 3.73ZM2684.35 3.73H2657.45L2671.62 1.87H2697.68L2684.35 3.73ZM2644.35 3.73H2618.4L2633.4 1.87H2658.7L2644.35 3.73ZM2604.35 3.73H2578.97L2595 1.87H2619.53L2604.35 3.73ZM2590.81 5.44L2578.81 6.92H2552L2564.66 5.44H2590.81ZM2565.11 8.62L2544.36 11.19H2515.61L2537.52 8.62H2565.11ZM2530.62 12.89L2499.71 16.71H2468.46L2501.09 12.89H2530.62ZM2486 18.44L2441.43 23.95H2406.91L2453.94 18.44H2486ZM2427.69 25.65L2368.23 33.01H2329.6L2392.39 25.65H2427.69ZM2354.49 34.71L2295 42.03H2252.26L2315.05 34.67L2354.49 34.71ZM2281.29 43.77L2225.29 50.7H2178.63L2237.8 43.77H2281.29ZM2211.52 52.4L2158.52 58.96H2108.12L2164.12 52.4H2211.52ZM2144.75 60.66L2083.17 68.28H2028.54L2093.54 60.66H2144.75ZM2069.42 69.98L1998.78 78.72H1939.42L2014 69.94L2069.42 69.98ZM1985 80.38L1934.87 86.58H1871.87L1924.87 80.38H1985ZM1921.12 88.28L1848.19 97.28H1780.39L1857.39 88.28H1921.12ZM1834.45 99L1695.72 116.16H1619.36L1765.87 99H1834.45ZM1682 117.86L1537.08 135.79H1451.8L1604.8 117.86H1682ZM1523.34 137.49L1374.74 155.88H1280.37L1437.31 137.49H1523.34ZM1361 157.57L1210 176.26H1106.33L1265.84 157.57H1361ZM1196.2 177.96L678 242.06H544.59L1091.82 177.96H1196.2ZM664.3 243.76L334.69 284.54H182L530.1 243.76H664.3ZM678.15 243.76H813.15L502 284.54H348.54L678.15 243.76ZM826.21 243.76H962L669.33 284.54H515.09L826.21 243.76ZM974.28 243.76H1110.79L836.65 284.54H681.65L974.28 243.76ZM1122.34 243.76H1259.61L1004 284.54H848.2L1122.34 243.76ZM1270.41 243.76H1414L1171.29 284.54H1014.76L1270.41 243.76ZM1424.2 243.76H1562.78L1338.6 284.54H1181.54L1424.2 243.76ZM1572.27 243.76H1711.6L1505.92 284.54H1348.1L1572.27 243.76ZM1720.34 243.76H1860.42L1673.23 284.54H1514.66L1720.34 243.76ZM1868.41 243.76H2009.25L1840.55 284.54H1681.22L1868.41 243.76ZM2016.48 243.76H2158.07L2007.86 284.54H1847.78L2016.48 243.76ZM2164.56 243.76H2311.42L2173.74 284.54H2014.35L2164.56 243.76ZM2471.74 242.04L2568 209.44H2698.43L2615.9 242.04H2471.74ZM2702.74 209.45H2833.86L2765.13 242.04H2620.28L2702.74 209.45ZM2837.61 209.45H2969.42L2914.42 242.04H2768.9L2837.61 209.45ZM2972.44 209.45H3105L3063.77 242.04H2917.52L2972.44 209.45ZM3107.31 209.45H3240.46L3213 242.04H3066.1L3107.31 209.45ZM3241.85 209.85C3241.96 209.726 3242.06 209.592 3242.15 209.45H3376.24C3375.85 210.36 3375.44 211.18 3375.02 211.99C3374.6 212.8 3374.08 213.83 3373.61 214.99L3362.18 242.08H3214.7L3241.85 209.85ZM3243.4 207.85C3245.66 204.138 3247.6 200.237 3249.19 196.19C3251.14 191.427 3253.5 186.843 3256.24 182.49C3258.19 179.374 3260.51 176.501 3263.14 173.93C3264.05 173.078 3265 172.28 3266 171.54L3387.56 170.44C3386.14 172.909 3384.97 175.519 3384.09 178.23C3381.81 185.355 3380.07 192.643 3378.88 200.03C3378.45 202.673 3377.8 205.278 3376.96 207.82L3243.4 207.85ZM3379.73 200.57C3380.91 193.322 3382.62 186.172 3384.86 179.18C3385.84 176.094 3387.23 173.154 3389 170.44L3511.25 169.37V207.82H3378.05C3378.78 205.434 3379.35 203.002 3379.76 200.54L3379.73 200.57ZM3390.33 168.74C3391.55 167.367 3393.02 166.228 3394.65 165.38C3396.18 164.56 3397.56 161.2 3399.01 157.64H3511.25V167.64L3390.33 168.74ZM3398.56 155.9H3287.43L3303 137.49H3406.37L3399.16 154.6L3398.56 155.9ZM3304.37 135.84L3310.78 128.25C3312.97 125.66 3315.21 121.53 3317.63 115.68L3413.9 115.27C3413.84 115.47 3413.81 115.68 3413.76 115.93C3412.95 120.779 3411.52 125.504 3409.51 129.99C3409.32 130.44 3409.1 130.9 3408.9 131.41L3407.02 135.84H3304.37ZM3409.66 132.44C3409.85 131.98 3410.04 131.52 3410.27 131.01C3412.36 126.385 3413.84 121.507 3414.67 116.5C3414.76 116.09 3414.84 115.69 3414.92 115.28L3511.28 114.87V135.8H3408.21L3409.66 132.44ZM3415.26 113.6C3416.32 107.936 3417.77 102.352 3419.61 96.89C3420.11 95.47 3420.61 94.2 3421.16 93.02L3507.59 92.16H3511.28V113.16L3415.26 113.6ZM3507.56 90.44L3421.94 91.25C3422.66 89.8326 3423.53 88.4924 3424.52 87.25C3425.12 86.4965 3425.82 85.8243 3426.6 85.25L3507.6 84.85H3511.32V90.44H3507.56ZM3507.56 83.16L3429.48 83.56C3429.48 83.56 3429.54 83.56 3429.56 83.56C3430.34 83.21 3431.09 82.03 3431.84 80.46H3511.28V83.21L3507.56 83.16ZM3432.56 78.72C3432.95 77.72 3433.33 76.79 3433.72 75.72C3434.19 74.5 3434.72 73.23 3435.14 72.1L3436.02 70.02H3511.28V78.72H3432.56ZM3436.75 68.29L3439.96 60.7H3511.28V68.24L3436.75 68.29ZM3440.68 58.97L3443.51 52.3H3511.28V58.97H3440.68ZM3444.2 50.56L3446.26 45.73C3446.39 45.37 3446.53 45.01 3446.67 44.66H3511.28V50.56H3444.2ZM3447.25 42.98C3448.09 40.33 3448.92 36.92 3449.75 33.35L3511.28 33.15V42.98H3447.25ZM3450.17 31.62C3450.83 28.82 3451.52 25.97 3452.17 23.57C3452.17 23.37 3452.28 23.22 3452.34 23.01L3507.54 22.66H3511.26V31.42L3450.17 31.62ZM3507.56 20.98L3452.88 21.33C3453.52 19.2 3454.16 17.26 3454.8 15.48L3507.59 15.02H3511.28V21.02L3507.56 20.98ZM3507.56 13.29L3455.4 13.7C3455.93 12.32 3456.46 11.1 3456.98 9.98L3507.53 9.57H3511.22V13.24L3507.56 13.29ZM3507.56 7.84L3457.87 8.25L3458.21 7.58C3458.48 7.08 3458.79 6.67 3459.09 6.21L3507.56 5.85H3511.28V7.85L3507.56 7.84ZM3410 3.97L3459.27 3.72C3459.09 3.94649 3458.92 4.18358 3458.77 4.43L3408.58 4.78C3409.05 4.44 3409.52 4.22 3410 3.97ZM3359.06 4.28L3407.06 3.97C3406.68 4.22 3406.29 4.53 3405.9 4.84L3356.9 5.19C3357.64 4.89 3358.36 4.53 3359.05 4.28H3359.06ZM3353.21 5.14L3305 5.5C3306.05 5.14 3307.11 4.78 3308.19 4.5L3355 4.22C3354.39 4.53 3353.81 4.84 3353.2 5.14H3353.21ZM3315.45 2.7H3334.61L3315.25 2.8C3315.3 2.75 3315.38 2.7 3315.44 2.7H3315.45ZM3266.34 2.9L3308.34 2.75C3308.28 2.75 3308.2 2.75 3308.14 2.75L3265.42 3L3266.34 2.9ZM3216.34 3.1C3216.62 3.05 3216.87 3.05 3217.14 3L3257.85 2.9L3257.18 3.05L3215.4 3.26L3216.34 3.1ZM3168 3.21L3207.77 3.05L3206.27 3.36L3165.67 3.56C3166.4 3.44 3167.18 3.31 3168 3.21ZM3155.33 3.61L3131.11 3.74H3115.88C3116.88 3.6 3117.88 3.44 3118.88 3.32L3157.4 3.22C3156.61 3.36 3156 3.44 3155.28 3.61H3155.33ZM2556.66 1.87H2580.42L2564.56 3.73H2540L2556.66 1.87ZM2524.66 5.43H2550.04L2537.41 6.91H2511.36L2524.66 5.43ZM2496.07 8.61H2522.89L2501 11.18H2473L2496.07 8.61ZM2457.72 12.88H2486.47L2453.83 16.7H2423.34L2457.72 12.88ZM2408.07 18.44H2439.33L2392.27 23.95H2358.5L2408.07 18.44ZM2343.22 25.65H2377.75L2315 32.97H2277.13L2343.22 25.65ZM2261.8 34.71H2300.44L2237.65 42.07H2195.65L2261.8 34.71ZM2180.39 43.77H2223.14L2164 50.66H2118.11L2180.39 43.77ZM2102.8 52.4H2149.46L2093.46 58.96H2043.83L2102.8 52.4ZM2028.53 60.66H2078.94L2013.94 68.28H1960L2028.53 60.66ZM1944.75 69.98H1999.39L1924.78 78.72H1866.19L1944.75 69.98ZM1850.9 80.38H1910.27L1857.27 86.58H1795.1L1850.9 80.38ZM1779.9 88.28H1842.9L1765.9 97.28H1698.9L1779.9 88.28ZM1683.5 99H1751.31L1604.8 116.16H1529.2L1683.5 99ZM1513.92 117.86H1590.28L1437.28 135.79H1352.7L1513.92 117.86ZM1337.45 137.49H1422.72L1265.78 155.88H1172.18L1337.45 137.49ZM1156.9 157.57H1251.27L1091.76 176.26H988.88L1156.9 157.57ZM973.6 177.96H1077.22L530 242.06H397.3L973.6 177.96ZM515.48 243.76L167.37 284.54H15.42L382 243.76H515.48ZM2179.55 284.61L2317.35 243.77H2461.54L2341 284.61H2179.55ZM2346.08 284.61L2466.67 243.77H2611.54L2508.18 284.61H2346.08ZM2512.64 284.61L2616 243.77H2761.6L2675.48 284.61H2512.64ZM2679.17 284.61L2765.29 243.77H2911.58L2842.68 284.61H2679.17ZM2845.68 284.61L2914.61 243.77H3061.56L3009.88 284.61H2845.68ZM3012.24 284.61L3063.92 243.77H3211.54L3177.1 284.61H3012.24ZM3178.85 284.61L3213.29 243.77H3361.52L3344.3 284.61H3178.85ZM3511.28 284.61H3345.44L3362.66 243.77H3511.28V284.61ZM3511.28 242.09H3363.41L3374.41 216.02C3374.81 215.063 3375.26 214.128 3375.76 213.22C3376.4 212.013 3376.98 210.771 3377.48 209.5H3511.3L3511.28 242.09ZM3511.28 155.87H3399.78C3399.79 155.781 3399.82 155.695 3399.87 155.62L3407.52 137.49H3511.3L3511.28 155.87ZM3512.17 84.87H3515.89L3596.89 85.27C3597.64 85.8696 3598.34 86.5393 3598.97 87.27C3599.99 88.4964 3600.85 89.8391 3601.55 91.27L3515.91 90.44H3512.19L3512.17 84.87ZM3512.17 284.64V243.77H3660.79L3678.01 284.61L3512.17 284.64ZM3679.17 284.64L3662 243.77H3810.24L3844.7 284.61L3679.17 284.64ZM3846.31 284.64L3811.85 243.8H3959.47L4011.15 284.64H3846.31ZM4013.48 284.64L3961.83 243.8H4108.78L4177.68 284.64H4013.48ZM4180.73 284.64L4111.83 243.8H4258.2L4344.32 284.64H4180.73ZM4347.99 284.64L4261.84 243.8H4407.44L4510.8 284.64H4347.99ZM4515.18 284.64L4411.84 243.8H4556.8L4677.39 284.64H4515.18ZM4682.47 284.59L4562.01 243.79H4706.21L4844 284.56L4682.47 284.59Z" fill="#FF0DD7"/>
</g>
<defs>
<clipPath id="clip0_690_40">
<rect width="7024.71" height="286.24" fill="white"/>
</clipPath>
</defs>
</svg>
