<svg preserveAspectRatio="none" width="375" height="172" viewBox="0 0 375 172" fill="none"
  xmlns="http://www.w3.org/2000/svg">
  <path opacity="0.7"
    d="M375 0L0 0L0 7.71424L375 7.71424V0ZM375 13.0525L0 13.0525L0 20.3347L375 20.3347V13.0525ZM375 26.105L0 26.105L0 32.9552L375 32.9552V26.105ZM375 39.1575L0 39.1575L0 45.5758L375 45.5758V39.1575ZM375 52.21L0 52.21L0 58.1963L375 58.1963V52.21ZM375 65.2625L0 65.2625L0 70.7859L375 70.7859V65.2625ZM375 78.3459L0 78.3459L0 83.4373L375 83.4373V78.3459ZM375 91.3984L0 91.3984L0 96.0578L375 96.0578V91.3984ZM375 104.451L0 104.451L0 108.678L375 108.678V104.451ZM375 117.503L0 117.503L0 121.299L375 121.299V117.503ZM375 130.556L0 130.556L0 133.919L375 133.919V130.556ZM375 143.639L0 143.639L0 146.571L375 146.571V143.639ZM375 156.692L0 156.692L0 159.191L375 159.191V156.692ZM375 169.744L0 169.744L0 171.812L375 171.812V169.744Z"
    fill="url(#paint0_linear_665_41)" />
  <defs>
    <linearGradient id="paint0_linear_665_41" x1="223.425" y1="216.812" x2="142.373" y2="100.611"
      gradientUnits="userSpaceOnUse">
      <stop stop-color="#5B0E7F" />
      <stop offset="1" stop-color="#251447" />
    </linearGradient>
  </defs>
</svg>
