<?xml version="1.0" encoding="utf-8"?>
<!-- Generator: Adobe Illustrator 25.1.0, SVG Export Plug-In . SVG Version: 6.00 Build 0)  -->
<svg version="1.1" id="Layer_1" xmlns="http://www.w3.org/2000/svg" xmlns:xlink="http://www.w3.org/1999/xlink" x="0px" y="0px"
	 viewBox="0 0 565.9 565.9" style="enable-background:new 0 0 565.9 565.9;" xml:space="preserve">
<style type="text/css">
	.st0{fill:url(#SVGID_1_);}
	.st1{fill:#F707CF;}
</style>
<linearGradient id="SVGID_1_" gradientUnits="userSpaceOnUse" x1="456.1" y1="577.2949" x2="200.9904" y2="143.6084" gradientTransform="matrix(1 0 0 -1 0 565.8898)">
	<stop  offset="3.700362e-02" style="stop-color:#650D89"/>
	<stop  offset="1" style="stop-color:#251447"/>
</linearGradient>
<path class="st0" d="M282.9,0L282.9,0c156.3,0,283,126.7,283,282.9v0c0,156.3-126.7,282.9-282.9,282.9h0C126.7,565.9,0,439.2,0,283
	v0C0,126.7,126.7,0,282.9,0z"/>
<g>
	<g>
		<polygon class="st1" points="324.4,342.7 353,333.9 353,312.2 324.4,321 		"/>
		<path class="st1" d="M347.6,251c-6.2-42.7-12-76.5-37.5-93c-17.7-11.5-41.7-12.5-75.6-3c-91,25.5-126.3,102.4-122.2,183
			c0.6,10.8,1.2,18.1,1.2,18.1l336.3-103.5v-32.4L347.6,251z M143.1,313.8c0-7.8,1.2-16.1,2.7-24.2l33.4-11.9V256l-26.8,8.2
			c0.7-1.9,1.3-4.1,2-5.8c13.1-34,46-61.1,88.6-73c7-2,13.5-3.4,19.3-4.3c13.8-2,24-0.9,30.5,3.3c14.4,9.4,18.8,38.6,24.1,75.8
			L143.1,313.8z"/>
	</g>
</g>
</svg>
