<?xml version="1.0" standalone="no"?>
<!DOCTYPE svg PUBLIC "-//W3C//DTD SVG 20010904//EN"
 "http://www.w3.org/TR/2001/REC-SVG-20010904/DTD/svg10.dtd">
<svg version="1.0" xmlns="http://www.w3.org/2000/svg"
 width="700.000000pt" height="700.000000pt" viewBox="0 0 700.000000 700.000000"
 preserveAspectRatio="xMidYMid meet">
<metadata>
Created by potrace 1.14, written by Peter Selinger 2001-2017
</metadata>
<g transform="translate(0.000000,700.000000) scale(0.100000,-0.100000)"
fill="#000000" stroke="none">
<path d="M3320 6989 c-717 -32 -1427 -301 -1995 -754 -576 -459 -987 -1077
-1189 -1785 -144 -506 -169 -1087 -70 -1605 178 -927 716 -1734 1505 -2258
473 -314 995 -502 1564 -562 181 -19 548 -19 728 0 943 100 1789 566 2380
1310 412 519 669 1160 737 1835 15 148 15 512 0 660 -113 1127 -734 2102
-1710 2683 -580 345 -1247 508 -1950 476z m315 -1853 c146 -40 283 -132 371
-250 126 -167 196 -377 264 -791 17 -104 33 -191 35 -193 1 -2 285 82 629 186
344 104 628 186 631 184 3 -3 5 -92 5 -199 0 -191 0 -194 -22 -203 -34 -14
-4124 -1270 -4137 -1270 -6 0 -11 12 -11 28 -1 15 -5 97 -10 182 -36 620 132
1203 464 1610 309 379 774 635 1321 726 110 18 380 12 460 -10z m733 -2132
l-3 -136 -175 -54 c-96 -30 -176 -54 -177 -54 -2 0 -3 60 -3 134 l0 135 118
36 c64 20 142 45 172 55 30 10 59 19 63 19 4 1 6 -60 5 -135z"/>
<path d="M3275 4763 c-83 -10 -244 -49 -360 -88 -446 -146 -788 -424 -959
-778 -62 -127 -72 -157 -56 -157 6 0 76 20 156 45 79 25 149 45 154 45 6 0 10
-53 10 -133 l0 -132 -209 -74 -208 -75 -11 -75 c-7 -42 -15 -109 -18 -150 -7
-69 -6 -73 12 -67 19 6 1133 350 1774 547 179 55 333 103 343 106 14 3 17 11
13 31 -3 15 -15 90 -27 167 -69 468 -153 686 -288 754 -69 35 -205 49 -326 34z"/>
</g>
</svg>
