<svg width="1026" height="252" viewBox="0 0 1026 252" fill="none" xmlns="http://www.w3.org/2000/svg">
  <path d="M1024.53 249.66L858.38 129.25L932.38 224.77L1024.53 249.66Z" stroke="#FF0DD7" stroke-width="1.3"
    stroke-linecap="round" stroke-linejoin="round" />
  <path d="M804.57 161.53L858.38 129.25L932.38 224.77L804.57 161.53Z" stroke="#FF0DD7" stroke-width="1.3"
    stroke-linecap="round" stroke-linejoin="round" />
  <path d="M748.73 94.9395C750.73 96.2895 827.441 125.939 827.441 125.939L804.571 161.589L748.73 94.9395Z"
    stroke="#FF0DD7" stroke-width="1.3" stroke-linecap="round" stroke-linejoin="round" />
  <path d="M858.38 129.25L827.44 125.88L804.57 161.53L858.38 129.25Z" stroke="#FF0DD7" stroke-width="1.3"
    stroke-linecap="round" stroke-linejoin="round" />
  <path d="M737.97 46.5098L702.99 51.8898L748.74 94.9398L737.97 46.5098Z" stroke="#FF0DD7" stroke-width="1.3"
    stroke-linecap="round" stroke-linejoin="round" />
  <path d="M827.44 125.89C826.09 122.52 737.97 46.5098 737.97 46.5098L748.73 94.9398L827.44 125.89Z" stroke="#FF0DD7"
    stroke-width="1.3" stroke-linecap="round" stroke-linejoin="round" />
  <path d="M669.36 95.6106C671.36 92.2506 702.99 51.8906 702.99 51.8906L658.6 66.6906L669.36 95.6106Z" stroke="#FF0DD7"
    stroke-width="1.3" stroke-linecap="round" stroke-linejoin="round" />
  <path d="M804.57 161.529L669.36 95.6095L748.74 94.9395L804.57 161.529Z" stroke="#FF0DD7" stroke-width="1.3"
    stroke-linecap="round" stroke-linejoin="round" />
  <path d="M1024.53 249.66L932.38 224.77L879.23 248.98L1024.53 249.66Z" stroke="#FF0DD7" stroke-width="1.3"
    stroke-linecap="round" stroke-linejoin="round" />
  <path d="M692.23 184.41C694.23 183.74 804.571 161.54 804.571 161.54L793.831 209.97L735.311 207.28L692.23 184.41Z"
    stroke="#FF0DD7" stroke-width="1.3" stroke-linecap="round" stroke-linejoin="round" />
  <path d="M879.231 248.981L793.811 209.971L748.061 227.461L879.231 248.981Z" stroke="#FF0DD7" stroke-width="1.3"
    stroke-linecap="round" stroke-linejoin="round" />
  <path d="M735.28 207.28C733.94 210.64 748.06 227.46 748.06 227.46L793.83 209.97L735.28 207.28Z" stroke="#FF0DD7"
    stroke-width="1.3" stroke-linecap="round" stroke-linejoin="round" />
  <path d="M641.11 188.439C643.8 189.119 735.28 207.279 735.28 207.279L748.06 227.459L641.11 188.439Z" stroke="#FF0DD7"
    stroke-width="1.3" stroke-linecap="round" stroke-linejoin="round" />
  <path d="M295.35 228.13C297.35 228.13 415.09 174.99 415.09 174.99L442.67 218.04L295.35 228.13Z" stroke="#FF0DD7"
    stroke-width="1.3" stroke-linecap="round" stroke-linejoin="round" />
  <path d="M611.51 205.93C609.51 205.26 442.67 218.04 442.67 218.04L643.12 245.62L611.51 205.93Z" stroke="#FF0DD7"
    stroke-width="1.3" stroke-linecap="round" stroke-linejoin="round" />
  <path d="M331.68 251C333.68 251 446.03 217.37 442.68 218C439.33 218.63 295.36 228.09 295.36 228.09L331.68 251Z"
    stroke="#FF0DD7" stroke-width="1.3" stroke-linecap="round" stroke-linejoin="round" />
  <path d="M263.061 205.929L313.521 169.609L295.351 228.129L263.061 205.929Z" stroke="#FF0DD7" stroke-width="1.3"
    stroke-linecap="round" stroke-linejoin="round" />
  <path d="M235.48 228.8L289.97 251L263.06 205.93L235.48 228.8Z" stroke="#FF0DD7" stroke-width="1.3"
    stroke-linecap="round" stroke-linejoin="round" />
  <path d="M295.351 228.13L289.971 251H331.681L295.351 228.13Z" stroke="#FF0DD7" stroke-width="1.3"
    stroke-linecap="round" stroke-linejoin="round" />
  <path d="M123.15 247.639L313.52 169.609L415.09 174.989L748.06 227.459L643.13 245.619L331.68 250.999L123.15 247.639Z"
    stroke="#FF0DD7" stroke-width="1.3" stroke-linecap="round" stroke-linejoin="round" />
  <path d="M235.481 228.801L123.151 247.641L99.6006 201.221L1.39062 249.661" stroke="#FF0DD7" stroke-width="1.3"
    stroke-linecap="round" stroke-linejoin="round" />
  <path d="M168.22 224.091L99.5996 201.221L160.14 136.641L225.39 173.641L168.22 224.091Z" stroke="#FF0DD7"
    stroke-width="1.3" stroke-linecap="round" stroke-linejoin="round" />
  <path d="M230.781 203.241L225.391 173.641L275.851 185.081" stroke="#FF0DD7" stroke-width="1.3" stroke-linecap="round"
    stroke-linejoin="round" />
  <path d="M295.35 176.329L311.5 124.539L334.37 170.279L344.46 66.6895L311.5 124.539L225.39 173.639L99.5996 201.219"
    stroke="#FF0DD7" stroke-width="1.3" stroke-linecap="round" stroke-linejoin="round" />
  <path d="M421.82 166.239L344.46 66.6895L339.75 116.459L421.82 166.239Z" stroke="#FF0DD7" stroke-width="1.3"
    stroke-linecap="round" stroke-linejoin="round" />
  <path d="M465.54 4.12988L425.18 77.4499L484.37 142.7L518.01 95.6099L465.54 4.12988Z" stroke="#FF0DD7"
    stroke-width="1.3" stroke-linecap="round" stroke-linejoin="round" />
  <path d="M692.23 184.409L650.52 141.349L518.01 95.6095L344.46 66.6895L470.25 148.749L424.51 142.699L345.3 68.7995"
    stroke="#FF0DD7" stroke-width="1.3" stroke-linecap="round" stroke-linejoin="round" />
  <path d="M392 61.9004L425.18 77.4504C425.18 77.4504 423.73 167.79 423.73 169.5" stroke="#FF0DD7" stroke-width="1.3"
    stroke-linecap="round" stroke-linejoin="round" />
  <path
    d="M730.32 205.46L568.46 125.21L534.15 119.83C534.82 122.52 560.38 195.17 560.38 195.17L568.46 125.17L641.11 188.4"
    stroke="#FF0DD7" stroke-width="1.3" stroke-linecap="round" stroke-linejoin="round" />
  <path d="M415.09 174.99C418.35 173.39 534.15 119.83 534.15 119.83" stroke="#FF0DD7" stroke-width="1.3"
    stroke-linecap="round" stroke-linejoin="round" />
  <path d="M548.43 24.9297L518.01 95.6097H669.36L548.43 24.9297Z" stroke="#FF0DD7" stroke-width="1.3"
    stroke-linecap="round" stroke-linejoin="round" />
  <path d="M650.52 141.349L669.36 95.6094L692.23 184.409L650.52 141.349Z" stroke="#FF0DD7" stroke-width="1.3"
    stroke-linecap="round" stroke-linejoin="round" />
  <path d="M626.811 153.44L650.531 141.35" stroke="#FF0DD7" stroke-width="1.3" stroke-linecap="round"
    stroke-linejoin="round" />
  <path d="M601.39 27.0508C600.68 29.1708 669.39 95.6108 669.39 95.6108" stroke="#FF0DD7" stroke-width="1.3"
    stroke-linecap="round" stroke-linejoin="round" />
  <path
    d="M1 249.66L160.77 134.29L241.94 153.08L344.47 65.08L394.02 60.81L465.79 1L549.52 23.21L600.78 25.78L656.32 67.64L703.31 51.41L738.34 45.43L828.05 124.89L857.96 128.3L1024.53 249.66"
    fill="#1D0D3D" />
  <path d="M1024.53 249.66L858.38 129.25L932.38 224.77L1024.53 249.66Z" stroke="#FF0DD7" stroke-width="1.3"
    stroke-linecap="round" stroke-linejoin="round" />
  <path d="M804.57 161.53L858.38 129.25L932.38 224.77L804.57 161.53Z" stroke="#FF0DD7" stroke-width="1.3"
    stroke-linecap="round" stroke-linejoin="round" />
  <path d="M748.73 94.9395C750.73 96.2895 827.441 125.939 827.441 125.939L804.571 161.589L748.73 94.9395Z"
    stroke="#FF0DD7" stroke-width="1.3" stroke-linecap="round" stroke-linejoin="round" />
  <path d="M858.38 129.25L827.44 125.88L804.57 161.53L858.38 129.25Z" stroke="#FF0DD7" stroke-width="1.3"
    stroke-linecap="round" stroke-linejoin="round" />
  <path d="M737.97 46.5098L702.99 51.8898L748.74 94.9398L737.97 46.5098Z" stroke="#FF0DD7" stroke-width="1.3"
    stroke-linecap="round" stroke-linejoin="round" />
  <path d="M827.44 125.89C826.09 122.52 737.97 46.5098 737.97 46.5098L748.73 94.9398L827.44 125.89Z" stroke="#FF0DD7"
    stroke-width="1.3" stroke-linecap="round" stroke-linejoin="round" />
  <path d="M669.36 95.6106C671.36 92.2506 702.99 51.8906 702.99 51.8906L658.6 66.6906L669.36 95.6106Z" stroke="#FF0DD7"
    stroke-width="1.3" stroke-linecap="round" stroke-linejoin="round" />
  <path d="M804.57 161.529L669.36 95.6095L748.74 94.9395L804.57 161.529Z" stroke="#FF0DD7" stroke-width="1.3"
    stroke-linecap="round" stroke-linejoin="round" />
  <path d="M1024.53 249.66L932.38 224.77L879.23 248.98L1024.53 249.66Z" stroke="#FF0DD7" stroke-width="1.3"
    stroke-linecap="round" stroke-linejoin="round" />
  <path d="M692.23 184.41C694.23 183.74 804.571 161.54 804.571 161.54L793.831 209.97L735.311 207.28L692.23 184.41Z"
    stroke="#FF0DD7" stroke-width="1.3" stroke-linecap="round" stroke-linejoin="round" />
  <path d="M879.231 248.981L793.811 209.971L748.061 227.461L879.231 248.981Z" stroke="#FF0DD7" stroke-width="1.3"
    stroke-linecap="round" stroke-linejoin="round" />
  <path d="M735.28 207.28C733.94 210.64 748.06 227.46 748.06 227.46L793.83 209.97L735.28 207.28Z" stroke="#FF0DD7"
    stroke-width="1.3" stroke-linecap="round" stroke-linejoin="round" />
  <path d="M641.11 188.439C643.8 189.119 735.28 207.279 735.28 207.279L748.06 227.459L641.11 188.439Z" stroke="#FF0DD7"
    stroke-width="1.3" stroke-linecap="round" stroke-linejoin="round" />
  <path d="M295.35 228.13C297.35 228.13 415.09 174.99 415.09 174.99L442.67 218.04L295.35 228.13Z" stroke="#FF0DD7"
    stroke-width="1.3" stroke-linecap="round" stroke-linejoin="round" />
  <path d="M611.51 205.93C609.51 205.26 442.67 218.04 442.67 218.04L643.12 245.62L611.51 205.93Z" stroke="#FF0DD7"
    stroke-width="1.3" stroke-linecap="round" stroke-linejoin="round" />
  <path d="M331.68 251C333.68 251 446.03 217.37 442.68 218C439.33 218.63 295.36 228.09 295.36 228.09L331.68 251Z"
    stroke="#FF0DD7" stroke-width="1.3" stroke-linecap="round" stroke-linejoin="round" />
  <path d="M263.061 205.929L313.521 169.609L295.351 228.129L263.061 205.929Z" stroke="#FF0DD7" stroke-width="1.3"
    stroke-linecap="round" stroke-linejoin="round" />
  <path d="M235.48 228.8L289.97 251L263.06 205.93L235.48 228.8Z" stroke="#FF0DD7" stroke-width="1.3"
    stroke-linecap="round" stroke-linejoin="round" />
  <path d="M295.351 228.13L289.971 251H331.681L295.351 228.13Z" stroke="#FF0DD7" stroke-width="1.3"
    stroke-linecap="round" stroke-linejoin="round" />
  <path d="M123.15 247.639L313.52 169.609L415.09 174.989L748.06 227.459L643.13 245.619L331.68 250.999L123.15 247.639Z"
    stroke="#FF0DD7" stroke-width="1.3" stroke-linecap="round" stroke-linejoin="round" />
  <path d="M235.481 228.801L123.151 247.641L99.6006 201.221L1.39062 249.661" stroke="#FF0DD7" stroke-width="1.3"
    stroke-linecap="round" stroke-linejoin="round" />
  <path d="M168.22 224.091L99.5996 201.221L160.14 136.641L225.39 173.641L168.22 224.091Z" stroke="#FF0DD7"
    stroke-width="1.3" stroke-linecap="round" stroke-linejoin="round" />
  <path d="M230.781 203.241L225.391 173.641L275.851 185.081" stroke="#FF0DD7" stroke-width="1.3" stroke-linecap="round"
    stroke-linejoin="round" />
  <path d="M295.35 176.329L311.5 124.539L334.37 170.279L344.46 66.6895L311.5 124.539L225.39 173.639L99.5996 201.219"
    stroke="#FF0DD7" stroke-width="1.3" stroke-linecap="round" stroke-linejoin="round" />
  <path d="M421.82 166.239L344.46 66.6895L339.75 116.459L421.82 166.239Z" stroke="#FF0DD7" stroke-width="1.3"
    stroke-linecap="round" stroke-linejoin="round" />
  <path d="M465.54 4.12988L425.18 77.4499L484.37 142.7L518.01 95.6099L465.54 4.12988Z" stroke="#FF0DD7"
    stroke-width="1.3" stroke-linecap="round" stroke-linejoin="round" />
  <path d="M692.23 184.409L650.52 141.349L518.01 95.6095L344.46 66.6895L470.25 148.749L424.51 142.699L345.3 68.7995"
    stroke="#FF0DD7" stroke-width="1.3" stroke-linecap="round" stroke-linejoin="round" />
  <path d="M392 61.9004L425.18 77.4504C425.18 77.4504 423.73 167.79 423.73 169.5" stroke="#FF0DD7" stroke-width="1.3"
    stroke-linecap="round" stroke-linejoin="round" />
  <path
    d="M730.32 205.46L568.46 125.21L534.15 119.83C534.82 122.52 560.38 195.17 560.38 195.17L568.46 125.17L641.11 188.4"
    stroke="#FF0DD7" stroke-width="1.3" stroke-linecap="round" stroke-linejoin="round" />
  <path d="M415.09 174.99C418.35 173.39 534.15 119.83 534.15 119.83" stroke="#FF0DD7" stroke-width="1.3"
    stroke-linecap="round" stroke-linejoin="round" />
  <path d="M548.43 24.9297L518.01 95.6097H669.36L548.43 24.9297Z" stroke="#FF0DD7" stroke-width="1.3"
    stroke-linecap="round" stroke-linejoin="round" />
  <path d="M650.52 141.349L669.36 95.6094L692.23 184.409L650.52 141.349Z" stroke="#FF0DD7" stroke-width="1.3"
    stroke-linecap="round" stroke-linejoin="round" />
  <path d="M626.811 153.44L650.531 141.35" stroke="#FF0DD7" stroke-width="1.3" stroke-linecap="round"
    stroke-linejoin="round" />
  <path d="M601.39 27.0508C600.68 29.1708 669.39 95.6108 669.39 95.6108" stroke="#FF0DD7" stroke-width="1.3"
    stroke-linecap="round" stroke-linejoin="round" />
  <path
    d="M1 249.66L160.77 134.29L241.94 153.08L344.47 65.08L394.02 60.81L465.79 1L549.52 23.21L600.78 25.78L656.32 67.64L703.31 51.41L738.34 45.43L828.05 124.89L857.96 128.3L1024.53 249.66"
    stroke="#FF0DD7" stroke-width="1.3" stroke-linecap="round" stroke-linejoin="round" />
</svg>
